<?xml version="1.0" encoding="UTF-8" standalone="no"?>
<!DOCTYPE svg PUBLIC "-//W3C//DTD SVG 1.1//EN"
 "http://www.w3.org/Graphics/SVG/1.1/DTD/svg11.dtd">
<!-- Generated by graphviz version 2.42.4 (0)
 -->
<!-- Title: G Pages: 1 -->
<svg width="228pt" height="222pt"
 viewBox="0.00 0.00 228.00 222.00" xmlns="http://www.w3.org/2000/svg" xmlns:xlink="http://www.w3.org/1999/xlink">
<g id="graph0" class="graph" transform="scale(1 1) rotate(0) translate(4 218)">
<title>G</title>
<polygon fill="white" stroke="transparent" points="-4,4 -4,-218 224,-218 224,4 -4,4"/>
<!-- n0 -->
<g id="node1" class="node">
<title>n0</title>
<path fill="#e6f4ea" stroke="transparent" stroke-width="2" d="M208,-214C208,-214 12,-214 12,-214 6,-214 0,-208 0,-202 0,-202 0,-142 0,-142 0,-136 6,-130 12,-130 12,-130 208,-130 208,-130 214,-130 220,-136 220,-142 220,-142 220,-202 220,-202 220,-208 214,-214 208,-214"/>
<polygon fill="#ffffff" stroke="transparent" points="0,-193 0,-214 220,-214 220,-193 0,-193"/>
<polygon fill="none" stroke="#d0d5dd" points="0,-193 0,-214 220,-214 220,-193 0,-193"/>
<text text-anchor="start" x="97.5" y="-202" font-family="monospace" font-weight="bold" font-size="10.00" fill="#111827">node</text>
<polygon fill="none" stroke="#d0d5dd" points="0,-172 0,-193 113,-193 113,-172 0,-172"/>
<text text-anchor="start" x="5" y="-180" font-family="monospace" font-size="10.00">addr</text>
<polygon fill="none" stroke="#d0d5dd" points="113,-172 113,-193 220,-193 220,-172 113,-172"/>
<text text-anchor="start" x="118" y="-180" font-family="monospace" font-size="10.00">0x5030000000a0</text>
<polygon fill="none" stroke="#d0d5dd" points="0,-151 0,-172 113,-172 113,-151 0,-151"/>
<text text-anchor="start" x="5" y="-159" font-family="monospace" font-size="10.00">data</text>
<polygon fill="none" stroke="#d0d5dd" points="113,-151 113,-172 220,-172 220,-151 113,-151"/>
<text text-anchor="start" x="118" y="-159" font-family="monospace" font-size="10.00">&quot;Кошачья морда?&quot;</text>
<polygon fill="none" stroke="#d0d5dd" points="0,-130 0,-151 113,-151 113,-130 0,-130"/>
<text text-anchor="start" x="5" y="-138" font-family="monospace" font-size="10.00">L: 0x503000000100</text>
<polygon fill="none" stroke="#d0d5dd" points="113,-130 113,-151 220,-151 220,-130 113,-130"/>
<text text-anchor="start" x="118" y="-138" font-family="monospace" font-size="10.00">R: (nil)</text>
</g>
<!-- n1 -->
<g id="node2" class="node">
<title>n1</title>
<path fill="#f9fafb" stroke="transparent" stroke-width="2" d="M175,-84C175,-84 45,-84 45,-84 39,-84 33,-78 33,-72 33,-72 33,-12 33,-12 33,-6 39,0 45,0 45,0 175,0 175,0 181,0 187,-6 187,-12 187,-12 187,-72 187,-72 187,-78 181,-84 175,-84"/>
<polygon fill="#ffffff" stroke="transparent" points="33,-63 33,-84 187,-84 187,-63 33,-63"/>
<polygon fill="none" stroke="#d0d5dd" points="33,-63 33,-84 187,-84 187,-63 33,-63"/>
<text text-anchor="start" x="97.5" y="-72" font-family="monospace" font-weight="bold" font-size="10.00" fill="#111827">node</text>
<polygon fill="none" stroke="#d0d5dd" points="33,-42 33,-63 92,-63 92,-42 33,-42"/>
<text text-anchor="start" x="38" y="-50" font-family="monospace" font-size="10.00">addr</text>
<polygon fill="none" stroke="#d0d5dd" points="92,-42 92,-63 187,-63 187,-42 92,-42"/>
<text text-anchor="start" x="97" y="-50" font-family="monospace" font-size="10.00">0x503000000100</text>
<polygon fill="none" stroke="#d0d5dd" points="33,-21 33,-42 92,-42 92,-21 33,-21"/>
<text text-anchor="start" x="38" y="-29" font-family="monospace" font-size="10.00">data</text>
<polygon fill="none" stroke="#d0d5dd" points="92,-21 92,-42 187,-42 187,-21 92,-21"/>
<text text-anchor="start" x="97" y="-29" font-family="monospace" font-size="10.00">&quot;Полторашка&quot;</text>
<polygon fill="none" stroke="#d0d5dd" points="33,0 33,-21 92,-21 92,0 33,0"/>
<text text-anchor="start" x="38" y="-8" font-family="monospace" font-size="10.00">L: (nil)</text>
<polygon fill="none" stroke="#d0d5dd" points="92,0 92,-21 187,-21 187,0 92,0"/>
<text text-anchor="start" x="97" y="-8" font-family="monospace" font-size="10.00">R: (nil)</text>
</g>
<!-- n0&#45;&gt;n1 -->
<g id="edge1" class="edge">
<title>n0&#45;&gt;n1</title>
<path fill="none" stroke="#98a2b3" stroke-width="1.9" d="M110,-129.8C110,-117.81 110,-104.59 110,-92.16"/>
<polygon fill="#98a2b3" stroke="#98a2b3" stroke-width="1.9" points="110,-84.13 113.6,-92.13 110.45,-88.13 110.45,-92.13 110,-92.13 109.55,-92.13 109.55,-88.13 106.4,-92.13 110,-84.13 110,-84.13"/>
<text text-anchor="middle" x="115.5" y="-104.8" font-family="monospace" font-size="9.00">да</text>
</g>
</g>
</svg>
