<?xml version="1.0" encoding="UTF-8" standalone="no"?>
<!DOCTYPE svg PUBLIC "-//W3C//DTD SVG 1.1//EN"
 "http://www.w3.org/Graphics/SVG/1.1/DTD/svg11.dtd">
<!-- Generated by graphviz version 2.42.4 (0)
 -->
<!-- Title: G Pages: 1 -->
<svg width="180pt" height="92pt"
 viewBox="0.00 0.00 180.00 92.00" xmlns="http://www.w3.org/2000/svg" xmlns:xlink="http://www.w3.org/1999/xlink">
<g id="graph0" class="graph" transform="scale(1 1) rotate(0) translate(4 88)">
<title>G</title>
<polygon fill="white" stroke="transparent" points="-4,4 -4,-88 176,-88 176,4 -4,4"/>
<!-- n0 -->
<g id="node1" class="node">
<title>n0</title>
<path fill="#e6f4ea" stroke="transparent" stroke-width="2" d="M160,-84C160,-84 12,-84 12,-84 6,-84 0,-78 0,-72 0,-72 0,-12 0,-12 0,-6 6,0 12,0 12,0 160,0 160,0 166,0 172,-6 172,-12 172,-12 172,-72 172,-72 172,-78 166,-84 160,-84"/>
<polygon fill="#ffffff" stroke="transparent" points="0,-63 0,-84 172,-84 172,-63 0,-63"/>
<polygon fill="none" stroke="#d0d5dd" points="0,-63 0,-84 172,-84 172,-63 0,-63"/>
<text text-anchor="start" x="73.5" y="-72" font-family="monospace" font-weight="bold" font-size="10.00" fill="#111827">node</text>
<polygon fill="none" stroke="#d0d5dd" points="0,-42 0,-63 59,-63 59,-42 0,-42"/>
<text text-anchor="start" x="5" y="-50" font-family="monospace" font-size="10.00">addr</text>
<polygon fill="none" stroke="#d0d5dd" points="59,-42 59,-63 172,-63 172,-42 59,-42"/>
<text text-anchor="start" x="64" y="-50" font-family="monospace" font-size="10.00">0x503001f09f90</text>
<polygon fill="none" stroke="#d0d5dd" points="0,-21 0,-42 59,-42 59,-21 0,-21"/>
<text text-anchor="start" x="5" y="-29" font-family="monospace" font-size="10.00">data</text>
<polygon fill="none" stroke="#d0d5dd" points="59,-21 59,-42 172,-42 172,-21 59,-21"/>
<text text-anchor="start" x="64" y="-29" font-family="monospace" font-size="10.00">&quot;Задает домашки?&quot;</text>
<polygon fill="none" stroke="#d0d5dd" points="0,0 0,-21 59,-21 59,0 0,0"/>
<text text-anchor="start" x="5" y="-8" font-family="monospace" font-size="10.00">L: (nil)</text>
<polygon fill="none" stroke="#d0d5dd" points="59,0 59,-21 172,-21 172,0 59,0"/>
<text text-anchor="start" x="64" y="-8" font-family="monospace" font-size="10.00">R: (nil)</text>
</g>
</g>
</svg>
