<?xml version="1.0" encoding="UTF-8" standalone="no"?>
<!DOCTYPE svg PUBLIC "-//W3C//DTD SVG 1.1//EN"
 "http://www.w3.org/Graphics/SVG/1.1/DTD/svg11.dtd">
<!-- Generated by graphviz version 2.42.4 (0)
 -->
<!-- Title: G Pages: 1 -->
<svg width="603pt" height="482pt"
 viewBox="0.00 0.00 603.00 482.00" xmlns="http://www.w3.org/2000/svg" xmlns:xlink="http://www.w3.org/1999/xlink">
<g id="graph0" class="graph" transform="scale(1 1) rotate(0) translate(4 478)">
<title>G</title>
<polygon fill="white" stroke="transparent" points="-4,4 -4,-478 599,-478 599,4 -4,4"/>
<!-- n0 -->
<g id="node1" class="node">
<title>n0</title>
<path fill="#e6f4ea" stroke="transparent" stroke-width="2" d="M238,-474C238,-474 36,-474 36,-474 30,-474 24,-468 24,-462 24,-462 24,-402 24,-402 24,-396 30,-390 36,-390 36,-390 238,-390 238,-390 244,-390 250,-396 250,-402 250,-402 250,-462 250,-462 250,-468 244,-474 238,-474"/>
<polygon fill="#ffffff" stroke="transparent" points="24,-453 24,-474 250,-474 250,-453 24,-453"/>
<polygon fill="none" stroke="#d0d5dd" points="24,-453 24,-474 250,-474 250,-453 24,-453"/>
<text text-anchor="start" x="124.5" y="-462" font-family="monospace" font-weight="bold" font-size="10.00" fill="#111827">node</text>
<polygon fill="none" stroke="#d0d5dd" points="24,-432 24,-453 137,-453 137,-432 24,-432"/>
<text text-anchor="start" x="29" y="-440" font-family="monospace" font-size="10.00">addr</text>
<polygon fill="none" stroke="#d0d5dd" points="137,-432 137,-453 250,-453 250,-432 137,-432"/>
<text text-anchor="start" x="142" y="-440" font-family="monospace" font-size="10.00">0x503000000040</text>
<polygon fill="none" stroke="#d0d5dd" points="24,-411 24,-432 137,-432 137,-411 24,-411"/>
<text text-anchor="start" x="29" y="-419" font-family="monospace" font-size="10.00">data</text>
<polygon fill="none" stroke="#d0d5dd" points="137,-411 137,-432 250,-432 250,-411 137,-411"/>
<text text-anchor="start" x="142" y="-419" font-family="monospace" font-size="10.00">&quot;Животное?&quot;</text>
<polygon fill="none" stroke="#d0d5dd" points="24,-390 24,-411 137,-411 137,-390 24,-390"/>
<text text-anchor="start" x="29" y="-398" font-family="monospace" font-size="10.00">L: 0x5030000000a0</text>
<polygon fill="none" stroke="#d0d5dd" points="137,-390 137,-411 250,-411 250,-390 137,-390"/>
<text text-anchor="start" x="142" y="-398" font-family="monospace" font-size="10.00">R: 0x503000000100</text>
</g>
<!-- n1 -->
<g id="node2" class="node">
<title>n1</title>
<path fill="#f9fafb" stroke="transparent" stroke-width="2" d="M142,-344C142,-344 12,-344 12,-344 6,-344 0,-338 0,-332 0,-332 0,-272 0,-272 0,-266 6,-260 12,-260 12,-260 142,-260 142,-260 148,-260 154,-266 154,-272 154,-272 154,-332 154,-332 154,-338 148,-344 142,-344"/>
<polygon fill="#ffffff" stroke="transparent" points="0,-323 0,-344 154,-344 154,-323 0,-323"/>
<polygon fill="none" stroke="#d0d5dd" points="0,-323 0,-344 154,-344 154,-323 0,-323"/>
<text text-anchor="start" x="64.5" y="-332" font-family="monospace" font-weight="bold" font-size="10.00" fill="#111827">node</text>
<polygon fill="none" stroke="#d0d5dd" points="0,-302 0,-323 59,-323 59,-302 0,-302"/>
<text text-anchor="start" x="5" y="-310" font-family="monospace" font-size="10.00">addr</text>
<polygon fill="none" stroke="#d0d5dd" points="59,-302 59,-323 154,-323 154,-302 59,-302"/>
<text text-anchor="start" x="64" y="-310" font-family="monospace" font-size="10.00">0x5030000000a0</text>
<polygon fill="none" stroke="#d0d5dd" points="0,-281 0,-302 59,-302 59,-281 0,-281"/>
<text text-anchor="start" x="5" y="-289" font-family="monospace" font-size="10.00">data</text>
<polygon fill="none" stroke="#d0d5dd" points="59,-281 59,-302 154,-302 154,-281 59,-281"/>
<text text-anchor="start" x="64" y="-289" font-family="monospace" font-size="10.00">&quot;Полторашка&quot;</text>
<polygon fill="none" stroke="#d0d5dd" points="0,-260 0,-281 59,-281 59,-260 0,-260"/>
<text text-anchor="start" x="5" y="-268" font-family="monospace" font-size="10.00">L: (nil)</text>
<polygon fill="none" stroke="#d0d5dd" points="59,-260 59,-281 154,-281 154,-260 59,-260"/>
<text text-anchor="start" x="64" y="-268" font-family="monospace" font-size="10.00">R: (nil)</text>
</g>
<!-- n0&#45;&gt;n1 -->
<g id="edge1" class="edge">
<title>n0&#45;&gt;n1</title>
<path fill="none" stroke="#98a2b3" stroke-width="1.9" d="M117.69,-389.8C111.96,-377.58 105.63,-364.08 99.71,-351.45"/>
<polygon fill="#98a2b3" stroke="#98a2b3" stroke-width="1.9" points="96.28,-344.13 102.93,-349.84 98.38,-347.56 100.08,-351.18 99.67,-351.37 99.27,-351.56 97.57,-347.94 96.41,-352.9 96.28,-344.13 96.28,-344.13"/>
<text text-anchor="middle" x="114.5" y="-364.8" font-family="monospace" font-size="9.00">да</text>
</g>
<!-- n2 -->
<g id="node3" class="node">
<title>n2</title>
<path fill="#f9fafb" stroke="transparent" stroke-width="2" d="M386,-344C386,-344 184,-344 184,-344 178,-344 172,-338 172,-332 172,-332 172,-272 172,-272 172,-266 178,-260 184,-260 184,-260 386,-260 386,-260 392,-260 398,-266 398,-272 398,-272 398,-332 398,-332 398,-338 392,-344 386,-344"/>
<polygon fill="#ffffff" stroke="transparent" points="172,-323 172,-344 398,-344 398,-323 172,-323"/>
<polygon fill="none" stroke="#d0d5dd" points="172,-323 172,-344 398,-344 398,-323 172,-323"/>
<text text-anchor="start" x="272.5" y="-332" font-family="monospace" font-weight="bold" font-size="10.00" fill="#111827">node</text>
<polygon fill="none" stroke="#d0d5dd" points="172,-302 172,-323 285,-323 285,-302 172,-302"/>
<text text-anchor="start" x="177" y="-310" font-family="monospace" font-size="10.00">addr</text>
<polygon fill="none" stroke="#d0d5dd" points="285,-302 285,-323 398,-323 398,-302 285,-302"/>
<text text-anchor="start" x="290" y="-310" font-family="monospace" font-size="10.00">0x503000000100</text>
<polygon fill="none" stroke="#d0d5dd" points="172,-281 172,-302 285,-302 285,-281 172,-281"/>
<text text-anchor="start" x="177" y="-289" font-family="monospace" font-size="10.00">data</text>
<polygon fill="none" stroke="#d0d5dd" points="285,-281 285,-302 398,-302 398,-281 285,-281"/>
<text text-anchor="start" x="290" y="-289" font-family="monospace" font-size="10.00">&quot;Препает матан?&quot;</text>
<polygon fill="none" stroke="#d0d5dd" points="172,-260 172,-281 285,-281 285,-260 172,-260"/>
<text text-anchor="start" x="177" y="-268" font-family="monospace" font-size="10.00">L: 0x503000000160</text>
<polygon fill="none" stroke="#d0d5dd" points="285,-260 285,-281 398,-281 398,-260 285,-260"/>
<text text-anchor="start" x="290" y="-268" font-family="monospace" font-size="10.00">R: 0x5030000001f0</text>
</g>
<!-- n0&#45;&gt;n2 -->
<g id="edge2" class="edge">
<title>n0&#45;&gt;n2</title>
<path fill="none" stroke="#98a2b3" stroke-width="1.9" d="M184.64,-389.8C199.43,-377.01 215.83,-362.82 231.02,-349.68"/>
<polygon fill="#98a2b3" stroke="#98a2b3" stroke-width="1.9" points="237.45,-344.13 233.75,-352.08 234.72,-347.08 231.69,-349.7 231.4,-349.36 231.1,-349.02 234.13,-346.4 229.04,-346.64 237.45,-344.13 237.45,-344.13"/>
<text text-anchor="middle" x="224" y="-364.8" font-family="monospace" font-size="9.00">нет</text>
</g>
<!-- n3 -->
<g id="node4" class="node">
<title>n3</title>
<path fill="#f9fafb" stroke="transparent" stroke-width="2" d="M289,-214C289,-214 159,-214 159,-214 153,-214 147,-208 147,-202 147,-202 147,-142 147,-142 147,-136 153,-130 159,-130 159,-130 289,-130 289,-130 295,-130 301,-136 301,-142 301,-142 301,-202 301,-202 301,-208 295,-214 289,-214"/>
<polygon fill="#ffffff" stroke="transparent" points="147,-193 147,-214 301,-214 301,-193 147,-193"/>
<polygon fill="none" stroke="#d0d5dd" points="147,-193 147,-214 301,-214 301,-193 147,-193"/>
<text text-anchor="start" x="211.5" y="-202" font-family="monospace" font-weight="bold" font-size="10.00" fill="#111827">node</text>
<polygon fill="none" stroke="#d0d5dd" points="147,-172 147,-193 206,-193 206,-172 147,-172"/>
<text text-anchor="start" x="152" y="-180" font-family="monospace" font-size="10.00">addr</text>
<polygon fill="none" stroke="#d0d5dd" points="206,-172 206,-193 301,-193 301,-172 206,-172"/>
<text text-anchor="start" x="211" y="-180" font-family="monospace" font-size="10.00">0x503000000160</text>
<polygon fill="none" stroke="#d0d5dd" points="147,-151 147,-172 206,-172 206,-151 147,-151"/>
<text text-anchor="start" x="152" y="-159" font-family="monospace" font-size="10.00">data</text>
<polygon fill="none" stroke="#d0d5dd" points="206,-151 206,-172 301,-172 301,-151 206,-151"/>
<text text-anchor="start" x="211" y="-159" font-family="monospace" font-size="10.00">&quot;ПетроВич&quot;</text>
<polygon fill="none" stroke="#d0d5dd" points="147,-130 147,-151 206,-151 206,-130 147,-130"/>
<text text-anchor="start" x="152" y="-138" font-family="monospace" font-size="10.00">L: (nil)</text>
<polygon fill="none" stroke="#d0d5dd" points="206,-130 206,-151 301,-151 301,-130 206,-130"/>
<text text-anchor="start" x="211" y="-138" font-family="monospace" font-size="10.00">R: (nil)</text>
</g>
<!-- n2&#45;&gt;n3 -->
<g id="edge3" class="edge">
<title>n2&#45;&gt;n3</title>
<path fill="none" stroke="#98a2b3" stroke-width="1.9" d="M265.36,-259.8C259.54,-247.58 253.11,-234.08 247.09,-221.45"/>
<polygon fill="#98a2b3" stroke="#98a2b3" stroke-width="1.9" points="243.6,-214.13 250.29,-219.8 245.73,-217.54 247.45,-221.16 247.04,-221.35 246.64,-221.54 244.91,-217.93 243.79,-222.9 243.6,-214.13 243.6,-214.13"/>
<text text-anchor="middle" x="262.5" y="-234.8" font-family="monospace" font-size="9.00">да</text>
</g>
<!-- n4 -->
<g id="node5" class="node">
<title>n4</title>
<path fill="#f9fafb" stroke="transparent" stroke-width="2" d="M533,-214C533,-214 331,-214 331,-214 325,-214 319,-208 319,-202 319,-202 319,-142 319,-142 319,-136 325,-130 331,-130 331,-130 533,-130 533,-130 539,-130 545,-136 545,-142 545,-142 545,-202 545,-202 545,-208 539,-214 533,-214"/>
<polygon fill="#ffffff" stroke="transparent" points="319,-193 319,-214 545,-214 545,-193 319,-193"/>
<polygon fill="none" stroke="#d0d5dd" points="319,-193 319,-214 545,-214 545,-193 319,-193"/>
<text text-anchor="start" x="419.5" y="-202" font-family="monospace" font-weight="bold" font-size="10.00" fill="#111827">node</text>
<polygon fill="none" stroke="#d0d5dd" points="319,-172 319,-193 432,-193 432,-172 319,-172"/>
<text text-anchor="start" x="324" y="-180" font-family="monospace" font-size="10.00">addr</text>
<polygon fill="none" stroke="#d0d5dd" points="432,-172 432,-193 545,-193 545,-172 432,-172"/>
<text text-anchor="start" x="437" y="-180" font-family="monospace" font-size="10.00">0x5030000001f0</text>
<polygon fill="none" stroke="#d0d5dd" points="319,-151 319,-172 432,-172 432,-151 319,-151"/>
<text text-anchor="start" x="324" y="-159" font-family="monospace" font-size="10.00">data</text>
<polygon fill="none" stroke="#d0d5dd" points="432,-151 432,-172 545,-172 545,-151 432,-151"/>
<text text-anchor="start" x="437" y="-159" font-family="monospace" font-size="10.00">&quot;Задает домашки?&quot;</text>
<polygon fill="none" stroke="#d0d5dd" points="319,-130 319,-151 432,-151 432,-130 319,-130"/>
<text text-anchor="start" x="324" y="-138" font-family="monospace" font-size="10.00">L: 0x503000000250</text>
<polygon fill="none" stroke="#d0d5dd" points="432,-130 432,-151 545,-151 545,-130 432,-130"/>
<text text-anchor="start" x="437" y="-138" font-family="monospace" font-size="10.00">R: 0x5030000001c0</text>
</g>
<!-- n2&#45;&gt;n4 -->
<g id="edge4" class="edge">
<title>n2&#45;&gt;n4</title>
<path fill="none" stroke="#98a2b3" stroke-width="1.9" d="M332.32,-259.8C347.01,-247.01 363.3,-232.82 378.39,-219.68"/>
<polygon fill="#98a2b3" stroke="#98a2b3" stroke-width="1.9" points="384.77,-214.13 381.1,-222.1 382.05,-217.09 379.03,-219.72 378.73,-219.38 378.44,-219.04 381.46,-216.41 376.37,-216.67 384.77,-214.13 384.77,-214.13"/>
<text text-anchor="middle" x="370" y="-234.8" font-family="monospace" font-size="9.00">нет</text>
</g>
<!-- n5 -->
<g id="node6" class="node">
<title>n5</title>
<path fill="#f9fafb" stroke="transparent" stroke-width="2" d="M411,-84C411,-84 281,-84 281,-84 275,-84 269,-78 269,-72 269,-72 269,-12 269,-12 269,-6 275,0 281,0 281,0 411,0 411,0 417,0 423,-6 423,-12 423,-12 423,-72 423,-72 423,-78 417,-84 411,-84"/>
<polygon fill="#ffffff" stroke="transparent" points="269,-63 269,-84 423,-84 423,-63 269,-63"/>
<polygon fill="none" stroke="#d0d5dd" points="269,-63 269,-84 423,-84 423,-63 269,-63"/>
<text text-anchor="start" x="333.5" y="-72" font-family="monospace" font-weight="bold" font-size="10.00" fill="#111827">node</text>
<polygon fill="none" stroke="#d0d5dd" points="269,-42 269,-63 328,-63 328,-42 269,-42"/>
<text text-anchor="start" x="274" y="-50" font-family="monospace" font-size="10.00">addr</text>
<polygon fill="none" stroke="#d0d5dd" points="328,-42 328,-63 423,-63 423,-42 328,-42"/>
<text text-anchor="start" x="333" y="-50" font-family="monospace" font-size="10.00">0x503000000250</text>
<polygon fill="none" stroke="#d0d5dd" points="269,-21 269,-42 328,-42 328,-21 269,-21"/>
<text text-anchor="start" x="274" y="-29" font-family="monospace" font-size="10.00">data</text>
<polygon fill="none" stroke="#d0d5dd" points="328,-21 328,-42 423,-42 423,-21 328,-21"/>
<text text-anchor="start" x="333" y="-29" font-family="monospace" font-size="10.00">&quot;Кириков&quot;</text>
<polygon fill="none" stroke="#d0d5dd" points="269,0 269,-21 328,-21 328,0 269,0"/>
<text text-anchor="start" x="274" y="-8" font-family="monospace" font-size="10.00">L: (nil)</text>
<polygon fill="none" stroke="#d0d5dd" points="328,0 328,-21 423,-21 423,0 328,0"/>
<text text-anchor="start" x="333" y="-8" font-family="monospace" font-size="10.00">R: (nil)</text>
</g>
<!-- n4&#45;&gt;n5 -->
<g id="edge5" class="edge">
<title>n4&#45;&gt;n5</title>
<path fill="none" stroke="#98a2b3" stroke-width="1.9" d="M404.32,-129.8C396.03,-117.46 386.87,-103.83 378.31,-91.1"/>
<polygon fill="#98a2b3" stroke="#98a2b3" stroke-width="1.9" points="373.63,-84.13 381.08,-88.76 376.24,-87.2 378.47,-90.52 378.09,-90.77 377.72,-91.02 375.49,-87.7 375.11,-92.78 373.63,-84.13 373.63,-84.13"/>
<text text-anchor="middle" x="396.5" y="-104.8" font-family="monospace" font-size="9.00">да</text>
</g>
<!-- n6 -->
<g id="node7" class="node">
<title>n6</title>
<path fill="#f9fafb" stroke="transparent" stroke-width="2" d="M583,-84C583,-84 453,-84 453,-84 447,-84 441,-78 441,-72 441,-72 441,-12 441,-12 441,-6 447,0 453,0 453,0 583,0 583,0 589,0 595,-6 595,-12 595,-12 595,-72 595,-72 595,-78 589,-84 583,-84"/>
<polygon fill="#ffffff" stroke="transparent" points="441,-63 441,-84 595,-84 595,-63 441,-63"/>
<polygon fill="none" stroke="#d0d5dd" points="441,-63 441,-84 595,-84 595,-63 441,-63"/>
<text text-anchor="start" x="505.5" y="-72" font-family="monospace" font-weight="bold" font-size="10.00" fill="#111827">node</text>
<polygon fill="none" stroke="#d0d5dd" points="441,-42 441,-63 500,-63 500,-42 441,-42"/>
<text text-anchor="start" x="446" y="-50" font-family="monospace" font-size="10.00">addr</text>
<polygon fill="none" stroke="#d0d5dd" points="500,-42 500,-63 595,-63 595,-42 500,-42"/>
<text text-anchor="start" x="505" y="-50" font-family="monospace" font-size="10.00">0x5030000001c0</text>
<polygon fill="none" stroke="#d0d5dd" points="441,-21 441,-42 500,-42 500,-21 441,-21"/>
<text text-anchor="start" x="446" y="-29" font-family="monospace" font-size="10.00">data</text>
<polygon fill="none" stroke="#d0d5dd" points="500,-21 500,-42 595,-42 595,-21 500,-21"/>
<text text-anchor="start" x="505" y="-29" font-family="monospace" font-size="10.00">&quot;Паша&quot;</text>
<polygon fill="none" stroke="#d0d5dd" points="441,0 441,-21 500,-21 500,0 441,0"/>
<text text-anchor="start" x="446" y="-8" font-family="monospace" font-size="10.00">L: (nil)</text>
<polygon fill="none" stroke="#d0d5dd" points="500,0 500,-21 595,-21 595,0 500,0"/>
<text text-anchor="start" x="505" y="-8" font-family="monospace" font-size="10.00">R: (nil)</text>
</g>
<!-- n4&#45;&gt;n6 -->
<g id="edge6" class="edge">
<title>n4&#45;&gt;n6</title>
<path fill="none" stroke="#98a2b3" stroke-width="1.9" d="M459.68,-129.8C467.97,-117.46 477.13,-103.83 485.69,-91.1"/>
<polygon fill="#98a2b3" stroke="#98a2b3" stroke-width="1.9" points="490.37,-84.13 488.89,-92.78 488.51,-87.7 486.28,-91.02 485.91,-90.77 485.53,-90.52 487.76,-87.2 482.92,-88.76 490.37,-84.13 490.37,-84.13"/>
<text text-anchor="middle" x="485" y="-104.8" font-family="monospace" font-size="9.00">нет</text>
</g>
</g>
</svg>
