<?xml version="1.0" encoding="UTF-8" standalone="no"?>
<!DOCTYPE svg PUBLIC "-//W3C//DTD SVG 1.1//EN"
 "http://www.w3.org/Graphics/SVG/1.1/DTD/svg11.dtd">
<!-- Generated by graphviz version 2.42.4 (0)
 -->
<!-- Title: G Pages: 1 -->
<svg width="334pt" height="222pt"
 viewBox="0.00 0.00 334.00 222.00" xmlns="http://www.w3.org/2000/svg" xmlns:xlink="http://www.w3.org/1999/xlink">
<g id="graph0" class="graph" transform="scale(1 1) rotate(0) translate(4 218)">
<title>G</title>
<polygon fill="white" stroke="transparent" points="-4,4 -4,-218 330,-218 330,4 -4,4"/>
<!-- n0 -->
<g id="node1" class="node">
<title>n0</title>
<path fill="#e6f4ea" stroke="transparent" stroke-width="2" d="M264,-214C264,-214 62,-214 62,-214 56,-214 50,-208 50,-202 50,-202 50,-142 50,-142 50,-136 56,-130 62,-130 62,-130 264,-130 264,-130 270,-130 276,-136 276,-142 276,-142 276,-202 276,-202 276,-208 270,-214 264,-214"/>
<polygon fill="#ffffff" stroke="transparent" points="50,-193 50,-214 276,-214 276,-193 50,-193"/>
<polygon fill="none" stroke="#d0d5dd" points="50,-193 50,-214 276,-214 276,-193 50,-193"/>
<text text-anchor="start" x="150.5" y="-202" font-family="monospace" font-weight="bold" font-size="10.00" fill="#111827">node</text>
<polygon fill="none" stroke="#d0d5dd" points="50,-172 50,-193 163,-193 163,-172 50,-172"/>
<text text-anchor="start" x="55" y="-180" font-family="monospace" font-size="10.00">addr</text>
<polygon fill="none" stroke="#d0d5dd" points="163,-172 163,-193 276,-193 276,-172 163,-172"/>
<text text-anchor="start" x="168" y="-180" font-family="monospace" font-size="10.00">0x5030000000a0</text>
<polygon fill="none" stroke="#d0d5dd" points="50,-151 50,-172 163,-172 163,-151 50,-151"/>
<text text-anchor="start" x="55" y="-159" font-family="monospace" font-size="10.00">data</text>
<polygon fill="none" stroke="#d0d5dd" points="163,-151 163,-172 276,-172 276,-151 163,-151"/>
<text text-anchor="start" x="168" y="-159" font-family="monospace" font-size="10.00">&quot;Кошачья морда?&quot;</text>
<polygon fill="none" stroke="#d0d5dd" points="50,-130 50,-151 163,-151 163,-130 50,-130"/>
<text text-anchor="start" x="55" y="-138" font-family="monospace" font-size="10.00">L: 0x503000000100</text>
<polygon fill="none" stroke="#d0d5dd" points="163,-130 163,-151 276,-151 276,-130 163,-130"/>
<text text-anchor="start" x="168" y="-138" font-family="monospace" font-size="10.00">R: 0x503000000160</text>
</g>
<!-- n1 -->
<g id="node2" class="node">
<title>n1</title>
<path fill="#f9fafb" stroke="transparent" stroke-width="2" d="M142,-84C142,-84 12,-84 12,-84 6,-84 0,-78 0,-72 0,-72 0,-12 0,-12 0,-6 6,0 12,0 12,0 142,0 142,0 148,0 154,-6 154,-12 154,-12 154,-72 154,-72 154,-78 148,-84 142,-84"/>
<polygon fill="#ffffff" stroke="transparent" points="0,-63 0,-84 154,-84 154,-63 0,-63"/>
<polygon fill="none" stroke="#d0d5dd" points="0,-63 0,-84 154,-84 154,-63 0,-63"/>
<text text-anchor="start" x="64.5" y="-72" font-family="monospace" font-weight="bold" font-size="10.00" fill="#111827">node</text>
<polygon fill="none" stroke="#d0d5dd" points="0,-42 0,-63 59,-63 59,-42 0,-42"/>
<text text-anchor="start" x="5" y="-50" font-family="monospace" font-size="10.00">addr</text>
<polygon fill="none" stroke="#d0d5dd" points="59,-42 59,-63 154,-63 154,-42 59,-42"/>
<text text-anchor="start" x="64" y="-50" font-family="monospace" font-size="10.00">0x503000000100</text>
<polygon fill="none" stroke="#d0d5dd" points="0,-21 0,-42 59,-42 59,-21 0,-21"/>
<text text-anchor="start" x="5" y="-29" font-family="monospace" font-size="10.00">data</text>
<polygon fill="none" stroke="#d0d5dd" points="59,-21 59,-42 154,-42 154,-21 59,-21"/>
<text text-anchor="start" x="64" y="-29" font-family="monospace" font-size="10.00">&quot;Полторашка&quot;</text>
<polygon fill="none" stroke="#d0d5dd" points="0,0 0,-21 59,-21 59,0 0,0"/>
<text text-anchor="start" x="5" y="-8" font-family="monospace" font-size="10.00">L: (nil)</text>
<polygon fill="none" stroke="#d0d5dd" points="59,0 59,-21 154,-21 154,0 59,0"/>
<text text-anchor="start" x="64" y="-8" font-family="monospace" font-size="10.00">R: (nil)</text>
</g>
<!-- n0&#45;&gt;n1 -->
<g id="edge1" class="edge">
<title>n0&#45;&gt;n1</title>
<path fill="none" stroke="#98a2b3" stroke-width="1.9" d="M135.32,-129.8C127.03,-117.46 117.87,-103.83 109.31,-91.1"/>
<polygon fill="#98a2b3" stroke="#98a2b3" stroke-width="1.9" points="104.63,-84.13 112.08,-88.76 107.24,-87.2 109.47,-90.52 109.09,-90.77 108.72,-91.02 106.49,-87.7 106.11,-92.78 104.63,-84.13 104.63,-84.13"/>
<text text-anchor="middle" x="128.5" y="-104.8" font-family="monospace" font-size="9.00">да</text>
</g>
<!-- n2 -->
<g id="node3" class="node">
<title>n2</title>
<path fill="#f9fafb" stroke="transparent" stroke-width="2" d="M314,-84C314,-84 184,-84 184,-84 178,-84 172,-78 172,-72 172,-72 172,-12 172,-12 172,-6 178,0 184,0 184,0 314,0 314,0 320,0 326,-6 326,-12 326,-12 326,-72 326,-72 326,-78 320,-84 314,-84"/>
<polygon fill="#ffffff" stroke="transparent" points="172,-63 172,-84 326,-84 326,-63 172,-63"/>
<polygon fill="none" stroke="#d0d5dd" points="172,-63 172,-84 326,-84 326,-63 172,-63"/>
<text text-anchor="start" x="236.5" y="-72" font-family="monospace" font-weight="bold" font-size="10.00" fill="#111827">node</text>
<polygon fill="none" stroke="#d0d5dd" points="172,-42 172,-63 231,-63 231,-42 172,-42"/>
<text text-anchor="start" x="177" y="-50" font-family="monospace" font-size="10.00">addr</text>
<polygon fill="none" stroke="#d0d5dd" points="231,-42 231,-63 326,-63 326,-42 231,-42"/>
<text text-anchor="start" x="236" y="-50" font-family="monospace" font-size="10.00">0x503000000160</text>
<polygon fill="none" stroke="#d0d5dd" points="172,-21 172,-42 231,-42 231,-21 172,-21"/>
<text text-anchor="start" x="177" y="-29" font-family="monospace" font-size="10.00">data</text>
<polygon fill="none" stroke="#d0d5dd" points="231,-21 231,-42 326,-42 326,-21 231,-21"/>
<text text-anchor="start" x="236" y="-29" font-family="monospace" font-size="10.00">&quot;Песик&quot;</text>
<polygon fill="none" stroke="#d0d5dd" points="172,0 172,-21 231,-21 231,0 172,0"/>
<text text-anchor="start" x="177" y="-8" font-family="monospace" font-size="10.00">L: (nil)</text>
<polygon fill="none" stroke="#d0d5dd" points="231,0 231,-21 326,-21 326,0 231,0"/>
<text text-anchor="start" x="236" y="-8" font-family="monospace" font-size="10.00">R: (nil)</text>
</g>
<!-- n0&#45;&gt;n2 -->
<g id="edge2" class="edge">
<title>n0&#45;&gt;n2</title>
<path fill="none" stroke="#98a2b3" stroke-width="1.9" d="M190.68,-129.8C198.97,-117.46 208.13,-103.83 216.69,-91.1"/>
<polygon fill="#98a2b3" stroke="#98a2b3" stroke-width="1.9" points="221.37,-84.13 219.89,-92.78 219.51,-87.7 217.28,-91.02 216.91,-90.77 216.53,-90.52 218.76,-87.2 213.92,-88.76 221.37,-84.13 221.37,-84.13"/>
<text text-anchor="middle" x="217" y="-104.8" font-family="monospace" font-size="9.00">нет</text>
</g>
</g>
</svg>
