<?xml version="1.0" encoding="UTF-8" standalone="no"?>
<!DOCTYPE svg PUBLIC "-//W3C//DTD SVG 1.1//EN"
 "http://www.w3.org/Graphics/SVG/1.1/DTD/svg11.dtd">
<!-- Generated by graphviz version 2.42.4 (0)
 -->
<!-- Title: G Pages: 1 -->
<svg width="234pt" height="222pt"
 viewBox="0.00 0.00 234.00 222.00" xmlns="http://www.w3.org/2000/svg" xmlns:xlink="http://www.w3.org/1999/xlink">
<g id="graph0" class="graph" transform="scale(1 1) rotate(0) translate(4 218)">
<title>G</title>
<polygon fill="white" stroke="transparent" points="-4,4 -4,-218 230,-218 230,4 -4,4"/>
<!-- n0 -->
<g id="node1" class="node">
<title>n0</title>
<path fill="#e6f4ea" stroke="transparent" stroke-width="2" d="M214,-214C214,-214 12,-214 12,-214 6,-214 0,-208 0,-202 0,-202 0,-142 0,-142 0,-136 6,-130 12,-130 12,-130 214,-130 214,-130 220,-130 226,-136 226,-142 226,-142 226,-202 226,-202 226,-208 220,-214 214,-214"/>
<polygon fill="#ffffff" stroke="transparent" points="0,-193 0,-214 226,-214 226,-193 0,-193"/>
<polygon fill="none" stroke="#d0d5dd" points="0,-193 0,-214 226,-214 226,-193 0,-193"/>
<text text-anchor="start" x="100.5" y="-202" font-family="monospace" font-weight="bold" font-size="10.00" fill="#111827">node</text>
<polygon fill="none" stroke="#d0d5dd" points="0,-172 0,-193 113,-193 113,-172 0,-172"/>
<text text-anchor="start" x="5" y="-180" font-family="monospace" font-size="10.00">addr</text>
<polygon fill="none" stroke="#d0d5dd" points="113,-172 113,-193 226,-193 226,-172 113,-172"/>
<text text-anchor="start" x="118" y="-180" font-family="monospace" font-size="10.00">0x503001f09f90</text>
<polygon fill="none" stroke="#d0d5dd" points="0,-151 0,-172 113,-172 113,-151 0,-151"/>
<text text-anchor="start" x="5" y="-159" font-family="monospace" font-size="10.00">data</text>
<polygon fill="none" stroke="#d0d5dd" points="113,-151 113,-172 226,-172 226,-151 113,-151"/>
<text text-anchor="start" x="118" y="-159" font-family="monospace" font-size="10.00">&quot;Задает домашки?&quot;</text>
<polygon fill="none" stroke="#d0d5dd" points="0,-130 0,-151 113,-151 113,-130 0,-130"/>
<text text-anchor="start" x="5" y="-138" font-family="monospace" font-size="10.00">L: 0x503001f09ff0</text>
<polygon fill="none" stroke="#d0d5dd" points="113,-130 113,-151 226,-151 226,-130 113,-130"/>
<text text-anchor="start" x="118" y="-138" font-family="monospace" font-size="10.00">R: (nil)</text>
</g>
<!-- n1 -->
<g id="node2" class="node">
<title>n1</title>
<path fill="#f9fafb" stroke="transparent" stroke-width="2" d="M178,-84C178,-84 48,-84 48,-84 42,-84 36,-78 36,-72 36,-72 36,-12 36,-12 36,-6 42,0 48,0 48,0 178,0 178,0 184,0 190,-6 190,-12 190,-12 190,-72 190,-72 190,-78 184,-84 178,-84"/>
<polygon fill="#ffffff" stroke="transparent" points="36,-63 36,-84 190,-84 190,-63 36,-63"/>
<polygon fill="none" stroke="#d0d5dd" points="36,-63 36,-84 190,-84 190,-63 36,-63"/>
<text text-anchor="start" x="100.5" y="-72" font-family="monospace" font-weight="bold" font-size="10.00" fill="#111827">node</text>
<polygon fill="none" stroke="#d0d5dd" points="36,-42 36,-63 95,-63 95,-42 36,-42"/>
<text text-anchor="start" x="41" y="-50" font-family="monospace" font-size="10.00">addr</text>
<polygon fill="none" stroke="#d0d5dd" points="95,-42 95,-63 190,-63 190,-42 95,-42"/>
<text text-anchor="start" x="100" y="-50" font-family="monospace" font-size="10.00">0x503001f09ff0</text>
<polygon fill="none" stroke="#d0d5dd" points="36,-21 36,-42 95,-42 95,-21 36,-21"/>
<text text-anchor="start" x="41" y="-29" font-family="monospace" font-size="10.00">data</text>
<polygon fill="none" stroke="#d0d5dd" points="95,-21 95,-42 190,-42 190,-21 95,-21"/>
<text text-anchor="start" x="100" y="-29" font-family="monospace" font-size="10.00">&quot;Кириков&quot;</text>
<polygon fill="none" stroke="#d0d5dd" points="36,0 36,-21 95,-21 95,0 36,0"/>
<text text-anchor="start" x="41" y="-8" font-family="monospace" font-size="10.00">L: (nil)</text>
<polygon fill="none" stroke="#d0d5dd" points="95,0 95,-21 190,-21 190,0 95,0"/>
<text text-anchor="start" x="100" y="-8" font-family="monospace" font-size="10.00">R: (nil)</text>
</g>
<!-- n0&#45;&gt;n1 -->
<g id="edge1" class="edge">
<title>n0&#45;&gt;n1</title>
<path fill="none" stroke="#98a2b3" stroke-width="1.9" d="M113,-129.8C113,-117.81 113,-104.59 113,-92.16"/>
<polygon fill="#98a2b3" stroke="#98a2b3" stroke-width="1.9" points="113,-84.13 116.6,-92.13 113.45,-88.13 113.45,-92.13 113,-92.13 112.55,-92.13 112.55,-88.13 109.4,-92.13 113,-84.13 113,-84.13"/>
<text text-anchor="middle" x="118.5" y="-104.8" font-family="monospace" font-size="9.00">да</text>
</g>
</g>
</svg>
