<?xml version="1.0" encoding="UTF-8" standalone="no"?>
<!DOCTYPE svg PUBLIC "-//W3C//DTD SVG 1.1//EN"
 "http://www.w3.org/Graphics/SVG/1.1/DTD/svg11.dtd">
<!-- Generated by graphviz version 2.42.4 (0)
 -->
<!-- Title: G Pages: 1 -->
<svg width="456pt" height="352pt"
 viewBox="0.00 0.00 456.00 352.00" xmlns="http://www.w3.org/2000/svg" xmlns:xlink="http://www.w3.org/1999/xlink">
<g id="graph0" class="graph" transform="scale(1 1) rotate(0) translate(4 348)">
<title>G</title>
<polygon fill="white" stroke="transparent" points="-4,4 -4,-348 452,-348 452,4 -4,4"/>
<!-- n0 -->
<g id="node1" class="node">
<title>n0</title>
<path fill="#e6f4ea" stroke="transparent" stroke-width="2" d="M238,-344C238,-344 36,-344 36,-344 30,-344 24,-338 24,-332 24,-332 24,-272 24,-272 24,-266 30,-260 36,-260 36,-260 238,-260 238,-260 244,-260 250,-266 250,-272 250,-272 250,-332 250,-332 250,-338 244,-344 238,-344"/>
<polygon fill="#ffffff" stroke="transparent" points="24,-323 24,-344 250,-344 250,-323 24,-323"/>
<polygon fill="none" stroke="#d0d5dd" points="24,-323 24,-344 250,-344 250,-323 24,-323"/>
<text text-anchor="start" x="124.5" y="-332" font-family="monospace" font-weight="bold" font-size="10.00" fill="#111827">node</text>
<polygon fill="none" stroke="#d0d5dd" points="24,-302 24,-323 137,-323 137,-302 24,-302"/>
<text text-anchor="start" x="29" y="-310" font-family="monospace" font-size="10.00">addr</text>
<polygon fill="none" stroke="#d0d5dd" points="137,-302 137,-323 250,-323 250,-302 137,-302"/>
<text text-anchor="start" x="142" y="-310" font-family="monospace" font-size="10.00">0x503001f09ed0</text>
<polygon fill="none" stroke="#d0d5dd" points="24,-281 24,-302 137,-302 137,-281 24,-281"/>
<text text-anchor="start" x="29" y="-289" font-family="monospace" font-size="10.00">data</text>
<polygon fill="none" stroke="#d0d5dd" points="137,-281 137,-302 250,-302 250,-281 137,-281"/>
<text text-anchor="start" x="142" y="-289" font-family="monospace" font-size="10.00">&quot;Препает матан?&quot;</text>
<polygon fill="none" stroke="#d0d5dd" points="24,-260 24,-281 137,-281 137,-260 24,-260"/>
<text text-anchor="start" x="29" y="-268" font-family="monospace" font-size="10.00">L: 0x503001f09f30</text>
<polygon fill="none" stroke="#d0d5dd" points="137,-260 137,-281 250,-281 250,-260 137,-260"/>
<text text-anchor="start" x="142" y="-268" font-family="monospace" font-size="10.00">R: 0x503001f09f90</text>
</g>
<!-- n1 -->
<g id="node2" class="node">
<title>n1</title>
<path fill="#f9fafb" stroke="transparent" stroke-width="2" d="M142,-214C142,-214 12,-214 12,-214 6,-214 0,-208 0,-202 0,-202 0,-142 0,-142 0,-136 6,-130 12,-130 12,-130 142,-130 142,-130 148,-130 154,-136 154,-142 154,-142 154,-202 154,-202 154,-208 148,-214 142,-214"/>
<polygon fill="#ffffff" stroke="transparent" points="0,-193 0,-214 154,-214 154,-193 0,-193"/>
<polygon fill="none" stroke="#d0d5dd" points="0,-193 0,-214 154,-214 154,-193 0,-193"/>
<text text-anchor="start" x="64.5" y="-202" font-family="monospace" font-weight="bold" font-size="10.00" fill="#111827">node</text>
<polygon fill="none" stroke="#d0d5dd" points="0,-172 0,-193 59,-193 59,-172 0,-172"/>
<text text-anchor="start" x="5" y="-180" font-family="monospace" font-size="10.00">addr</text>
<polygon fill="none" stroke="#d0d5dd" points="59,-172 59,-193 154,-193 154,-172 59,-172"/>
<text text-anchor="start" x="64" y="-180" font-family="monospace" font-size="10.00">0x503001f09f30</text>
<polygon fill="none" stroke="#d0d5dd" points="0,-151 0,-172 59,-172 59,-151 0,-151"/>
<text text-anchor="start" x="5" y="-159" font-family="monospace" font-size="10.00">data</text>
<polygon fill="none" stroke="#d0d5dd" points="59,-151 59,-172 154,-172 154,-151 59,-151"/>
<text text-anchor="start" x="64" y="-159" font-family="monospace" font-size="10.00">&quot;ПетроВич&quot;</text>
<polygon fill="none" stroke="#d0d5dd" points="0,-130 0,-151 59,-151 59,-130 0,-130"/>
<text text-anchor="start" x="5" y="-138" font-family="monospace" font-size="10.00">L: (nil)</text>
<polygon fill="none" stroke="#d0d5dd" points="59,-130 59,-151 154,-151 154,-130 59,-130"/>
<text text-anchor="start" x="64" y="-138" font-family="monospace" font-size="10.00">R: (nil)</text>
</g>
<!-- n0&#45;&gt;n1 -->
<g id="edge1" class="edge">
<title>n0&#45;&gt;n1</title>
<path fill="none" stroke="#98a2b3" stroke-width="1.9" d="M117.69,-259.8C111.96,-247.58 105.63,-234.08 99.71,-221.45"/>
<polygon fill="#98a2b3" stroke="#98a2b3" stroke-width="1.9" points="96.28,-214.13 102.93,-219.84 98.38,-217.56 100.08,-221.18 99.67,-221.37 99.27,-221.56 97.57,-217.94 96.41,-222.9 96.28,-214.13 96.28,-214.13"/>
<text text-anchor="middle" x="114.5" y="-234.8" font-family="monospace" font-size="9.00">да</text>
</g>
<!-- n2 -->
<g id="node3" class="node">
<title>n2</title>
<path fill="#f9fafb" stroke="transparent" stroke-width="2" d="M386,-214C386,-214 184,-214 184,-214 178,-214 172,-208 172,-202 172,-202 172,-142 172,-142 172,-136 178,-130 184,-130 184,-130 386,-130 386,-130 392,-130 398,-136 398,-142 398,-142 398,-202 398,-202 398,-208 392,-214 386,-214"/>
<polygon fill="#ffffff" stroke="transparent" points="172,-193 172,-214 398,-214 398,-193 172,-193"/>
<polygon fill="none" stroke="#d0d5dd" points="172,-193 172,-214 398,-214 398,-193 172,-193"/>
<text text-anchor="start" x="272.5" y="-202" font-family="monospace" font-weight="bold" font-size="10.00" fill="#111827">node</text>
<polygon fill="none" stroke="#d0d5dd" points="172,-172 172,-193 285,-193 285,-172 172,-172"/>
<text text-anchor="start" x="177" y="-180" font-family="monospace" font-size="10.00">addr</text>
<polygon fill="none" stroke="#d0d5dd" points="285,-172 285,-193 398,-193 398,-172 285,-172"/>
<text text-anchor="start" x="290" y="-180" font-family="monospace" font-size="10.00">0x503001f09f90</text>
<polygon fill="none" stroke="#d0d5dd" points="172,-151 172,-172 285,-172 285,-151 172,-151"/>
<text text-anchor="start" x="177" y="-159" font-family="monospace" font-size="10.00">data</text>
<polygon fill="none" stroke="#d0d5dd" points="285,-151 285,-172 398,-172 398,-151 285,-151"/>
<text text-anchor="start" x="290" y="-159" font-family="monospace" font-size="10.00">&quot;Задает домашки?&quot;</text>
<polygon fill="none" stroke="#d0d5dd" points="172,-130 172,-151 285,-151 285,-130 172,-130"/>
<text text-anchor="start" x="177" y="-138" font-family="monospace" font-size="10.00">L: 0x503001f09ff0</text>
<polygon fill="none" stroke="#d0d5dd" points="285,-130 285,-151 398,-151 398,-130 285,-130"/>
<text text-anchor="start" x="290" y="-138" font-family="monospace" font-size="10.00">R: 0x503001f0a020</text>
</g>
<!-- n0&#45;&gt;n2 -->
<g id="edge2" class="edge">
<title>n0&#45;&gt;n2</title>
<path fill="none" stroke="#98a2b3" stroke-width="1.9" d="M184.64,-259.8C199.43,-247.01 215.83,-232.82 231.02,-219.68"/>
<polygon fill="#98a2b3" stroke="#98a2b3" stroke-width="1.9" points="237.45,-214.13 233.75,-222.08 234.72,-217.08 231.69,-219.7 231.4,-219.36 231.1,-219.02 234.13,-216.4 229.04,-216.64 237.45,-214.13 237.45,-214.13"/>
<text text-anchor="middle" x="223" y="-234.8" font-family="monospace" font-size="9.00">нет</text>
</g>
<!-- n3 -->
<g id="node4" class="node">
<title>n3</title>
<path fill="#f9fafb" stroke="transparent" stroke-width="2" d="M264,-84C264,-84 134,-84 134,-84 128,-84 122,-78 122,-72 122,-72 122,-12 122,-12 122,-6 128,0 134,0 134,0 264,0 264,0 270,0 276,-6 276,-12 276,-12 276,-72 276,-72 276,-78 270,-84 264,-84"/>
<polygon fill="#ffffff" stroke="transparent" points="122,-63 122,-84 276,-84 276,-63 122,-63"/>
<polygon fill="none" stroke="#d0d5dd" points="122,-63 122,-84 276,-84 276,-63 122,-63"/>
<text text-anchor="start" x="186.5" y="-72" font-family="monospace" font-weight="bold" font-size="10.00" fill="#111827">node</text>
<polygon fill="none" stroke="#d0d5dd" points="122,-42 122,-63 181,-63 181,-42 122,-42"/>
<text text-anchor="start" x="127" y="-50" font-family="monospace" font-size="10.00">addr</text>
<polygon fill="none" stroke="#d0d5dd" points="181,-42 181,-63 276,-63 276,-42 181,-42"/>
<text text-anchor="start" x="186" y="-50" font-family="monospace" font-size="10.00">0x503001f09ff0</text>
<polygon fill="none" stroke="#d0d5dd" points="122,-21 122,-42 181,-42 181,-21 122,-21"/>
<text text-anchor="start" x="127" y="-29" font-family="monospace" font-size="10.00">data</text>
<polygon fill="none" stroke="#d0d5dd" points="181,-21 181,-42 276,-42 276,-21 181,-21"/>
<text text-anchor="start" x="186" y="-29" font-family="monospace" font-size="10.00">&quot;Кириков&quot;</text>
<polygon fill="none" stroke="#d0d5dd" points="122,0 122,-21 181,-21 181,0 122,0"/>
<text text-anchor="start" x="127" y="-8" font-family="monospace" font-size="10.00">L: (nil)</text>
<polygon fill="none" stroke="#d0d5dd" points="181,0 181,-21 276,-21 276,0 181,0"/>
<text text-anchor="start" x="186" y="-8" font-family="monospace" font-size="10.00">R: (nil)</text>
</g>
<!-- n2&#45;&gt;n3 -->
<g id="edge3" class="edge">
<title>n2&#45;&gt;n3</title>
<path fill="none" stroke="#98a2b3" stroke-width="1.9" d="M257.32,-129.8C249.03,-117.46 239.87,-103.83 231.31,-91.1"/>
<polygon fill="#98a2b3" stroke="#98a2b3" stroke-width="1.9" points="226.63,-84.13 234.08,-88.76 229.24,-87.2 231.47,-90.52 231.09,-90.77 230.72,-91.02 228.49,-87.7 228.11,-92.78 226.63,-84.13 226.63,-84.13"/>
<text text-anchor="middle" x="249.5" y="-104.8" font-family="monospace" font-size="9.00">да</text>
</g>
<!-- n4 -->
<g id="node5" class="node">
<title>n4</title>
<path fill="#f9fafb" stroke="transparent" stroke-width="2" d="M436,-84C436,-84 306,-84 306,-84 300,-84 294,-78 294,-72 294,-72 294,-12 294,-12 294,-6 300,0 306,0 306,0 436,0 436,0 442,0 448,-6 448,-12 448,-12 448,-72 448,-72 448,-78 442,-84 436,-84"/>
<polygon fill="#ffffff" stroke="transparent" points="294,-63 294,-84 448,-84 448,-63 294,-63"/>
<polygon fill="none" stroke="#d0d5dd" points="294,-63 294,-84 448,-84 448,-63 294,-63"/>
<text text-anchor="start" x="358.5" y="-72" font-family="monospace" font-weight="bold" font-size="10.00" fill="#111827">node</text>
<polygon fill="none" stroke="#d0d5dd" points="294,-42 294,-63 353,-63 353,-42 294,-42"/>
<text text-anchor="start" x="299" y="-50" font-family="monospace" font-size="10.00">addr</text>
<polygon fill="none" stroke="#d0d5dd" points="353,-42 353,-63 448,-63 448,-42 353,-42"/>
<text text-anchor="start" x="358" y="-50" font-family="monospace" font-size="10.00">0x503001f0a020</text>
<polygon fill="none" stroke="#d0d5dd" points="294,-21 294,-42 353,-42 353,-21 294,-21"/>
<text text-anchor="start" x="299" y="-29" font-family="monospace" font-size="10.00">data</text>
<polygon fill="none" stroke="#d0d5dd" points="353,-21 353,-42 448,-42 448,-21 353,-21"/>
<text text-anchor="start" x="358" y="-29" font-family="monospace" font-size="10.00">&quot;Паша&quot;</text>
<polygon fill="none" stroke="#d0d5dd" points="294,0 294,-21 353,-21 353,0 294,0"/>
<text text-anchor="start" x="299" y="-8" font-family="monospace" font-size="10.00">L: (nil)</text>
<polygon fill="none" stroke="#d0d5dd" points="353,0 353,-21 448,-21 448,0 353,0"/>
<text text-anchor="start" x="358" y="-8" font-family="monospace" font-size="10.00">R: (nil)</text>
</g>
<!-- n2&#45;&gt;n4 -->
<g id="edge4" class="edge">
<title>n2&#45;&gt;n4</title>
<path fill="none" stroke="#98a2b3" stroke-width="1.9" d="M312.68,-129.8C320.97,-117.46 330.13,-103.83 338.69,-91.1"/>
<polygon fill="#98a2b3" stroke="#98a2b3" stroke-width="1.9" points="343.37,-84.13 341.89,-92.78 341.51,-87.7 339.28,-91.02 338.91,-90.77 338.53,-90.52 340.76,-87.2 335.92,-88.76 343.37,-84.13 343.37,-84.13"/>
<text text-anchor="middle" x="338" y="-104.8" font-family="monospace" font-size="9.00">нет</text>
</g>
</g>
</svg>
