<?xml version="1.0" encoding="UTF-8" standalone="no"?>
<!DOCTYPE svg PUBLIC "-//W3C//DTD SVG 1.1//EN"
 "http://www.w3.org/Graphics/SVG/1.1/DTD/svg11.dtd">
<!-- Generated by graphviz version 2.42.4 (0)
 -->
<!-- Title: G Pages: 1 -->
<svg width="346pt" height="222pt"
 viewBox="0.00 0.00 346.00 222.00" xmlns="http://www.w3.org/2000/svg" xmlns:xlink="http://www.w3.org/1999/xlink">
<g id="graph0" class="graph" transform="scale(1 1) rotate(0) translate(4 218)">
<title>G</title>
<polygon fill="white" stroke="transparent" points="-4,4 -4,-218 342,-218 342,4 -4,4"/>
<!-- n0 -->
<g id="node1" class="node">
<title>n0</title>
<path fill="#e6f4ea" stroke="transparent" stroke-width="2" d="M267,-214C267,-214 65,-214 65,-214 59,-214 53,-208 53,-202 53,-202 53,-142 53,-142 53,-136 59,-130 65,-130 65,-130 267,-130 267,-130 273,-130 279,-136 279,-142 279,-142 279,-202 279,-202 279,-208 273,-214 267,-214"/>
<polygon fill="#ffffff" stroke="transparent" points="53,-193 53,-214 279,-214 279,-193 53,-193"/>
<polygon fill="none" stroke="#d0d5dd" points="53,-193 53,-214 279,-214 279,-193 53,-193"/>
<text text-anchor="start" x="153.5" y="-202" font-family="monospace" font-weight="bold" font-size="10.00" fill="#111827">node</text>
<polygon fill="none" stroke="#d0d5dd" points="53,-172 53,-193 166,-193 166,-172 53,-172"/>
<text text-anchor="start" x="58" y="-180" font-family="monospace" font-size="10.00">addr</text>
<polygon fill="none" stroke="#d0d5dd" points="166,-172 166,-193 279,-193 279,-172 166,-172"/>
<text text-anchor="start" x="171" y="-180" font-family="monospace" font-size="10.00">0x503000000040</text>
<polygon fill="none" stroke="#d0d5dd" points="53,-151 53,-172 166,-172 166,-151 53,-151"/>
<text text-anchor="start" x="58" y="-159" font-family="monospace" font-size="10.00">data</text>
<polygon fill="none" stroke="#d0d5dd" points="166,-151 166,-172 279,-172 279,-151 166,-151"/>
<text text-anchor="start" x="171" y="-159" font-family="monospace" font-size="10.00">&quot;Животное?&quot;</text>
<polygon fill="none" stroke="#d0d5dd" points="53,-130 53,-151 166,-151 166,-130 53,-130"/>
<text text-anchor="start" x="58" y="-138" font-family="monospace" font-size="10.00">L: 0x5030000000a0</text>
<polygon fill="none" stroke="#d0d5dd" points="166,-130 166,-151 279,-151 279,-130 166,-130"/>
<text text-anchor="start" x="171" y="-138" font-family="monospace" font-size="10.00">R: 0x503000000100</text>
</g>
<!-- n1 -->
<g id="node2" class="node">
<title>n1</title>
<path fill="#f9fafb" stroke="transparent" stroke-width="2" d="M142,-84C142,-84 12,-84 12,-84 6,-84 0,-78 0,-72 0,-72 0,-12 0,-12 0,-6 6,0 12,0 12,0 142,0 142,0 148,0 154,-6 154,-12 154,-12 154,-72 154,-72 154,-78 148,-84 142,-84"/>
<polygon fill="#ffffff" stroke="transparent" points="0,-63 0,-84 154,-84 154,-63 0,-63"/>
<polygon fill="none" stroke="#d0d5dd" points="0,-63 0,-84 154,-84 154,-63 0,-63"/>
<text text-anchor="start" x="64.5" y="-72" font-family="monospace" font-weight="bold" font-size="10.00" fill="#111827">node</text>
<polygon fill="none" stroke="#d0d5dd" points="0,-42 0,-63 59,-63 59,-42 0,-42"/>
<text text-anchor="start" x="5" y="-50" font-family="monospace" font-size="10.00">addr</text>
<polygon fill="none" stroke="#d0d5dd" points="59,-42 59,-63 154,-63 154,-42 59,-42"/>
<text text-anchor="start" x="64" y="-50" font-family="monospace" font-size="10.00">0x5030000000a0</text>
<polygon fill="none" stroke="#d0d5dd" points="0,-21 0,-42 59,-42 59,-21 0,-21"/>
<text text-anchor="start" x="5" y="-29" font-family="monospace" font-size="10.00">data</text>
<polygon fill="none" stroke="#d0d5dd" points="59,-21 59,-42 154,-42 154,-21 59,-21"/>
<text text-anchor="start" x="64" y="-29" font-family="monospace" font-size="10.00">&quot;Полторашка&quot;</text>
<polygon fill="none" stroke="#d0d5dd" points="0,0 0,-21 59,-21 59,0 0,0"/>
<text text-anchor="start" x="5" y="-8" font-family="monospace" font-size="10.00">L: (nil)</text>
<polygon fill="none" stroke="#d0d5dd" points="59,0 59,-21 154,-21 154,0 59,0"/>
<text text-anchor="start" x="64" y="-8" font-family="monospace" font-size="10.00">R: (nil)</text>
</g>
<!-- n0&#45;&gt;n1 -->
<g id="edge1" class="edge">
<title>n0&#45;&gt;n1</title>
<path fill="none" stroke="#98a2b3" stroke-width="1.9" d="M137.35,-129.8C128.7,-117.35 119.12,-103.58 110.2,-90.74"/>
<polygon fill="#98a2b3" stroke="#98a2b3" stroke-width="1.9" points="105.6,-84.13 113.12,-88.64 108.25,-87.15 110.53,-90.44 110.16,-90.7 109.79,-90.95 107.51,-87.67 107.21,-92.75 105.6,-84.13 105.6,-84.13"/>
<text text-anchor="middle" x="130.5" y="-104.8" font-family="monospace" font-size="9.00">да</text>
</g>
<!-- n2 -->
<g id="node3" class="node">
<title>n2</title>
<path fill="#f9fafb" stroke="transparent" stroke-width="2" d="M326,-84C326,-84 184,-84 184,-84 178,-84 172,-78 172,-72 172,-72 172,-12 172,-12 172,-6 178,0 184,0 184,0 326,0 326,0 332,0 338,-6 338,-12 338,-12 338,-72 338,-72 338,-78 332,-84 326,-84"/>
<polygon fill="#ffffff" stroke="transparent" points="172,-63 172,-84 338,-84 338,-63 172,-63"/>
<polygon fill="none" stroke="#d0d5dd" points="172,-63 172,-84 338,-84 338,-63 172,-63"/>
<text text-anchor="start" x="242.5" y="-72" font-family="monospace" font-weight="bold" font-size="10.00" fill="#111827">node</text>
<polygon fill="none" stroke="#d0d5dd" points="172,-42 172,-63 231,-63 231,-42 172,-42"/>
<text text-anchor="start" x="177" y="-50" font-family="monospace" font-size="10.00">addr</text>
<polygon fill="none" stroke="#d0d5dd" points="231,-42 231,-63 338,-63 338,-42 231,-42"/>
<text text-anchor="start" x="236" y="-50" font-family="monospace" font-size="10.00">0x503000000100</text>
<polygon fill="none" stroke="#d0d5dd" points="172,-21 172,-42 231,-42 231,-21 172,-21"/>
<text text-anchor="start" x="177" y="-29" font-family="monospace" font-size="10.00">data</text>
<polygon fill="none" stroke="#d0d5dd" points="231,-21 231,-42 338,-42 338,-21 231,-21"/>
<text text-anchor="start" x="236" y="-29" font-family="monospace" font-size="10.00">&quot;Препает матан?&quot;</text>
<polygon fill="none" stroke="#d0d5dd" points="172,0 172,-21 231,-21 231,0 172,0"/>
<text text-anchor="start" x="177" y="-8" font-family="monospace" font-size="10.00">L: (nil)</text>
<polygon fill="none" stroke="#d0d5dd" points="231,0 231,-21 338,-21 338,0 231,0"/>
<text text-anchor="start" x="236" y="-8" font-family="monospace" font-size="10.00">R: (nil)</text>
</g>
<!-- n0&#45;&gt;n2 -->
<g id="edge2" class="edge">
<title>n0&#45;&gt;n2</title>
<path fill="none" stroke="#98a2b3" stroke-width="1.9" d="M194.65,-129.8C203.3,-117.35 212.88,-103.58 221.8,-90.74"/>
<polygon fill="#98a2b3" stroke="#98a2b3" stroke-width="1.9" points="226.4,-84.13 224.79,-92.75 224.49,-87.67 222.21,-90.95 221.84,-90.7 221.47,-90.44 223.75,-87.15 218.88,-88.64 226.4,-84.13 226.4,-84.13"/>
<text text-anchor="middle" x="222" y="-104.8" font-family="monospace" font-size="9.00">нет</text>
</g>
</g>
</svg>
