<?xml version="1.0" encoding="UTF-8" standalone="no"?>
<!DOCTYPE svg PUBLIC "-//W3C//DTD SVG 1.1//EN"
 "http://www.w3.org/Graphics/SVG/1.1/DTD/svg11.dtd">
<!-- Generated by graphviz version 2.42.4 (0)
 -->
<!-- Title: G Pages: 1 -->
<svg width="809pt" height="482pt"
 viewBox="0.00 0.00 809.00 482.00" xmlns="http://www.w3.org/2000/svg" xmlns:xlink="http://www.w3.org/1999/xlink">
<g id="graph0" class="graph" transform="scale(1 1) rotate(0) translate(4 478)">
<title>G</title>
<polygon fill="white" stroke="transparent" points="-4,4 -4,-478 805,-478 805,4 -4,4"/>
<!-- n0 -->
<g id="node1" class="node">
<title>n0</title>
<path fill="#e6f4ea" stroke="transparent" stroke-width="2" d="M436,-474C436,-474 234,-474 234,-474 228,-474 222,-468 222,-462 222,-462 222,-402 222,-402 222,-396 228,-390 234,-390 234,-390 436,-390 436,-390 442,-390 448,-396 448,-402 448,-402 448,-462 448,-462 448,-468 442,-474 436,-474"/>
<polygon fill="#ffffff" stroke="transparent" points="222,-453 222,-474 448,-474 448,-453 222,-453"/>
<polygon fill="none" stroke="#d0d5dd" points="222,-453 222,-474 448,-474 448,-453 222,-453"/>
<text text-anchor="start" x="322.5" y="-462" font-family="monospace" font-weight="bold" font-size="10.00" fill="#111827">node</text>
<polygon fill="none" stroke="#d0d5dd" points="222,-432 222,-453 335,-453 335,-432 222,-432"/>
<text text-anchor="start" x="227" y="-440" font-family="monospace" font-size="10.00">addr</text>
<polygon fill="none" stroke="#d0d5dd" points="335,-432 335,-453 448,-453 448,-432 335,-432"/>
<text text-anchor="start" x="340" y="-440" font-family="monospace" font-size="10.00">0x503001f09d80</text>
<polygon fill="none" stroke="#d0d5dd" points="222,-411 222,-432 335,-432 335,-411 222,-411"/>
<text text-anchor="start" x="227" y="-419" font-family="monospace" font-size="10.00">data</text>
<polygon fill="none" stroke="#d0d5dd" points="335,-411 335,-432 448,-432 448,-411 335,-411"/>
<text text-anchor="start" x="340" y="-419" font-family="monospace" font-size="10.00">&quot;Животное?&quot;</text>
<polygon fill="none" stroke="#d0d5dd" points="222,-390 222,-411 335,-411 335,-390 222,-390"/>
<text text-anchor="start" x="227" y="-398" font-family="monospace" font-size="10.00">L: 0x503001f09de0</text>
<polygon fill="none" stroke="#d0d5dd" points="335,-390 335,-411 448,-411 448,-390 335,-390"/>
<text text-anchor="start" x="340" y="-398" font-family="monospace" font-size="10.00">R: 0x503001f09ed0</text>
</g>
<!-- n1 -->
<g id="node2" class="node">
<title>n1</title>
<path fill="#f9fafb" stroke="transparent" stroke-width="2" d="M314,-344C314,-344 112,-344 112,-344 106,-344 100,-338 100,-332 100,-332 100,-272 100,-272 100,-266 106,-260 112,-260 112,-260 314,-260 314,-260 320,-260 326,-266 326,-272 326,-272 326,-332 326,-332 326,-338 320,-344 314,-344"/>
<polygon fill="#ffffff" stroke="transparent" points="100,-323 100,-344 326,-344 326,-323 100,-323"/>
<polygon fill="none" stroke="#d0d5dd" points="100,-323 100,-344 326,-344 326,-323 100,-323"/>
<text text-anchor="start" x="200.5" y="-332" font-family="monospace" font-weight="bold" font-size="10.00" fill="#111827">node</text>
<polygon fill="none" stroke="#d0d5dd" points="100,-302 100,-323 213,-323 213,-302 100,-302"/>
<text text-anchor="start" x="105" y="-310" font-family="monospace" font-size="10.00">addr</text>
<polygon fill="none" stroke="#d0d5dd" points="213,-302 213,-323 326,-323 326,-302 213,-302"/>
<text text-anchor="start" x="218" y="-310" font-family="monospace" font-size="10.00">0x503001f09de0</text>
<polygon fill="none" stroke="#d0d5dd" points="100,-281 100,-302 213,-302 213,-281 100,-281"/>
<text text-anchor="start" x="105" y="-289" font-family="monospace" font-size="10.00">data</text>
<polygon fill="none" stroke="#d0d5dd" points="213,-281 213,-302 326,-302 326,-281 213,-281"/>
<text text-anchor="start" x="218" y="-289" font-family="monospace" font-size="10.00">&quot;Кошачья морда?&quot;</text>
<polygon fill="none" stroke="#d0d5dd" points="100,-260 100,-281 213,-281 213,-260 100,-260"/>
<text text-anchor="start" x="105" y="-268" font-family="monospace" font-size="10.00">L: 0x503001f09e40</text>
<polygon fill="none" stroke="#d0d5dd" points="213,-260 213,-281 326,-281 326,-260 213,-260"/>
<text text-anchor="start" x="218" y="-268" font-family="monospace" font-size="10.00">R: 0x503001f09ea0</text>
</g>
<!-- n0&#45;&gt;n1 -->
<g id="edge1" class="edge">
<title>n0&#45;&gt;n1</title>
<path fill="none" stroke="#98a2b3" stroke-width="1.9" d="M295.73,-389.8C283.65,-377.12 270.26,-363.07 257.83,-350.04"/>
<polygon fill="#98a2b3" stroke="#98a2b3" stroke-width="1.9" points="252.2,-344.13 260.32,-347.43 255.29,-346.71 258.04,-349.61 257.72,-349.92 257.39,-350.23 254.63,-347.33 255.11,-352.4 252.2,-344.13 252.2,-344.13"/>
<text text-anchor="middle" x="282.5" y="-364.8" font-family="monospace" font-size="9.00">да</text>
</g>
<!-- n2 -->
<g id="node3" class="node">
<title>n2</title>
<path fill="#f9fafb" stroke="transparent" stroke-width="2" d="M558,-344C558,-344 356,-344 356,-344 350,-344 344,-338 344,-332 344,-332 344,-272 344,-272 344,-266 350,-260 356,-260 356,-260 558,-260 558,-260 564,-260 570,-266 570,-272 570,-272 570,-332 570,-332 570,-338 564,-344 558,-344"/>
<polygon fill="#ffffff" stroke="transparent" points="344,-323 344,-344 570,-344 570,-323 344,-323"/>
<polygon fill="none" stroke="#d0d5dd" points="344,-323 344,-344 570,-344 570,-323 344,-323"/>
<text text-anchor="start" x="444.5" y="-332" font-family="monospace" font-weight="bold" font-size="10.00" fill="#111827">node</text>
<polygon fill="none" stroke="#d0d5dd" points="344,-302 344,-323 457,-323 457,-302 344,-302"/>
<text text-anchor="start" x="349" y="-310" font-family="monospace" font-size="10.00">addr</text>
<polygon fill="none" stroke="#d0d5dd" points="457,-302 457,-323 570,-323 570,-302 457,-302"/>
<text text-anchor="start" x="462" y="-310" font-family="monospace" font-size="10.00">0x503001f09ed0</text>
<polygon fill="none" stroke="#d0d5dd" points="344,-281 344,-302 457,-302 457,-281 344,-281"/>
<text text-anchor="start" x="349" y="-289" font-family="monospace" font-size="10.00">data</text>
<polygon fill="none" stroke="#d0d5dd" points="457,-281 457,-302 570,-302 570,-281 457,-281"/>
<text text-anchor="start" x="462" y="-289" font-family="monospace" font-size="10.00">&quot;Препает матан?&quot;</text>
<polygon fill="none" stroke="#d0d5dd" points="344,-260 344,-281 457,-281 457,-260 344,-260"/>
<text text-anchor="start" x="349" y="-268" font-family="monospace" font-size="10.00">L: 0x503001f09f30</text>
<polygon fill="none" stroke="#d0d5dd" points="457,-260 457,-281 570,-281 570,-260 457,-260"/>
<text text-anchor="start" x="462" y="-268" font-family="monospace" font-size="10.00">R: 0x503001f09f90</text>
</g>
<!-- n0&#45;&gt;n2 -->
<g id="edge2" class="edge">
<title>n0&#45;&gt;n2</title>
<path fill="none" stroke="#98a2b3" stroke-width="1.9" d="M374.27,-389.8C386.35,-377.12 399.74,-363.07 412.17,-350.04"/>
<polygon fill="#98a2b3" stroke="#98a2b3" stroke-width="1.9" points="417.8,-344.13 414.89,-352.4 415.37,-347.33 412.61,-350.23 412.28,-349.92 411.96,-349.61 414.71,-346.71 409.68,-347.43 417.8,-344.13 417.8,-344.13"/>
<text text-anchor="middle" x="407" y="-364.8" font-family="monospace" font-size="9.00">нет</text>
</g>
<!-- n3 -->
<g id="node4" class="node">
<title>n3</title>
<path fill="#f9fafb" stroke="transparent" stroke-width="2" d="M142,-214C142,-214 12,-214 12,-214 6,-214 0,-208 0,-202 0,-202 0,-142 0,-142 0,-136 6,-130 12,-130 12,-130 142,-130 142,-130 148,-130 154,-136 154,-142 154,-142 154,-202 154,-202 154,-208 148,-214 142,-214"/>
<polygon fill="#ffffff" stroke="transparent" points="0,-193 0,-214 154,-214 154,-193 0,-193"/>
<polygon fill="none" stroke="#d0d5dd" points="0,-193 0,-214 154,-214 154,-193 0,-193"/>
<text text-anchor="start" x="64.5" y="-202" font-family="monospace" font-weight="bold" font-size="10.00" fill="#111827">node</text>
<polygon fill="none" stroke="#d0d5dd" points="0,-172 0,-193 59,-193 59,-172 0,-172"/>
<text text-anchor="start" x="5" y="-180" font-family="monospace" font-size="10.00">addr</text>
<polygon fill="none" stroke="#d0d5dd" points="59,-172 59,-193 154,-193 154,-172 59,-172"/>
<text text-anchor="start" x="64" y="-180" font-family="monospace" font-size="10.00">0x503001f09e40</text>
<polygon fill="none" stroke="#d0d5dd" points="0,-151 0,-172 59,-172 59,-151 0,-151"/>
<text text-anchor="start" x="5" y="-159" font-family="monospace" font-size="10.00">data</text>
<polygon fill="none" stroke="#d0d5dd" points="59,-151 59,-172 154,-172 154,-151 59,-151"/>
<text text-anchor="start" x="64" y="-159" font-family="monospace" font-size="10.00">&quot;Полторашка&quot;</text>
<polygon fill="none" stroke="#d0d5dd" points="0,-130 0,-151 59,-151 59,-130 0,-130"/>
<text text-anchor="start" x="5" y="-138" font-family="monospace" font-size="10.00">L: (nil)</text>
<polygon fill="none" stroke="#d0d5dd" points="59,-130 59,-151 154,-151 154,-130 59,-130"/>
<text text-anchor="start" x="64" y="-138" font-family="monospace" font-size="10.00">R: (nil)</text>
</g>
<!-- n1&#45;&gt;n3 -->
<g id="edge3" class="edge">
<title>n1&#45;&gt;n3</title>
<path fill="none" stroke="#98a2b3" stroke-width="1.9" d="M169.22,-259.8C155.63,-247.01 140.56,-232.82 126.6,-219.68"/>
<polygon fill="#98a2b3" stroke="#98a2b3" stroke-width="1.9" points="120.7,-214.13 128.99,-216.99 123.92,-216.54 126.83,-219.28 126.52,-219.61 126.22,-219.94 123.3,-217.2 124.06,-222.23 120.7,-214.13 120.7,-214.13"/>
<text text-anchor="middle" x="155.5" y="-234.8" font-family="monospace" font-size="9.00">да</text>
</g>
<!-- n4 -->
<g id="node5" class="node">
<title>n4</title>
<path fill="#f9fafb" stroke="transparent" stroke-width="2" d="M314,-214C314,-214 184,-214 184,-214 178,-214 172,-208 172,-202 172,-202 172,-142 172,-142 172,-136 178,-130 184,-130 184,-130 314,-130 314,-130 320,-130 326,-136 326,-142 326,-142 326,-202 326,-202 326,-208 320,-214 314,-214"/>
<polygon fill="#ffffff" stroke="transparent" points="172,-193 172,-214 326,-214 326,-193 172,-193"/>
<polygon fill="none" stroke="#d0d5dd" points="172,-193 172,-214 326,-214 326,-193 172,-193"/>
<text text-anchor="start" x="236.5" y="-202" font-family="monospace" font-weight="bold" font-size="10.00" fill="#111827">node</text>
<polygon fill="none" stroke="#d0d5dd" points="172,-172 172,-193 231,-193 231,-172 172,-172"/>
<text text-anchor="start" x="177" y="-180" font-family="monospace" font-size="10.00">addr</text>
<polygon fill="none" stroke="#d0d5dd" points="231,-172 231,-193 326,-193 326,-172 231,-172"/>
<text text-anchor="start" x="236" y="-180" font-family="monospace" font-size="10.00">0x503001f09ea0</text>
<polygon fill="none" stroke="#d0d5dd" points="172,-151 172,-172 231,-172 231,-151 172,-151"/>
<text text-anchor="start" x="177" y="-159" font-family="monospace" font-size="10.00">data</text>
<polygon fill="none" stroke="#d0d5dd" points="231,-151 231,-172 326,-172 326,-151 231,-151"/>
<text text-anchor="start" x="236" y="-159" font-family="monospace" font-size="10.00">&quot;Песик&quot;</text>
<polygon fill="none" stroke="#d0d5dd" points="172,-130 172,-151 231,-151 231,-130 172,-130"/>
<text text-anchor="start" x="177" y="-138" font-family="monospace" font-size="10.00">L: (nil)</text>
<polygon fill="none" stroke="#d0d5dd" points="231,-130 231,-151 326,-151 326,-130 231,-130"/>
<text text-anchor="start" x="236" y="-138" font-family="monospace" font-size="10.00">R: (nil)</text>
</g>
<!-- n1&#45;&gt;n4 -->
<g id="edge4" class="edge">
<title>n1&#45;&gt;n4</title>
<path fill="none" stroke="#98a2b3" stroke-width="1.9" d="M224.59,-259.8C227.96,-247.81 231.68,-234.59 235.17,-222.16"/>
<polygon fill="#98a2b3" stroke="#98a2b3" stroke-width="1.9" points="237.43,-214.13 238.73,-222.8 236.78,-218.1 235.7,-221.95 235.27,-221.83 234.83,-221.71 235.92,-217.86 231.8,-220.85 237.43,-214.13 237.43,-214.13"/>
<text text-anchor="middle" x="240" y="-234.8" font-family="monospace" font-size="9.00">нет</text>
</g>
<!-- n5 -->
<g id="node6" class="node">
<title>n5</title>
<path fill="#f9fafb" stroke="transparent" stroke-width="2" d="M495,-214C495,-214 365,-214 365,-214 359,-214 353,-208 353,-202 353,-202 353,-142 353,-142 353,-136 359,-130 365,-130 365,-130 495,-130 495,-130 501,-130 507,-136 507,-142 507,-142 507,-202 507,-202 507,-208 501,-214 495,-214"/>
<polygon fill="#ffffff" stroke="transparent" points="353,-193 353,-214 507,-214 507,-193 353,-193"/>
<polygon fill="none" stroke="#d0d5dd" points="353,-193 353,-214 507,-214 507,-193 353,-193"/>
<text text-anchor="start" x="417.5" y="-202" font-family="monospace" font-weight="bold" font-size="10.00" fill="#111827">node</text>
<polygon fill="none" stroke="#d0d5dd" points="353,-172 353,-193 412,-193 412,-172 353,-172"/>
<text text-anchor="start" x="358" y="-180" font-family="monospace" font-size="10.00">addr</text>
<polygon fill="none" stroke="#d0d5dd" points="412,-172 412,-193 507,-193 507,-172 412,-172"/>
<text text-anchor="start" x="417" y="-180" font-family="monospace" font-size="10.00">0x503001f09f30</text>
<polygon fill="none" stroke="#d0d5dd" points="353,-151 353,-172 412,-172 412,-151 353,-151"/>
<text text-anchor="start" x="358" y="-159" font-family="monospace" font-size="10.00">data</text>
<polygon fill="none" stroke="#d0d5dd" points="412,-151 412,-172 507,-172 507,-151 412,-151"/>
<text text-anchor="start" x="417" y="-159" font-family="monospace" font-size="10.00">&quot;ПетроВич&quot;</text>
<polygon fill="none" stroke="#d0d5dd" points="353,-130 353,-151 412,-151 412,-130 353,-130"/>
<text text-anchor="start" x="358" y="-138" font-family="monospace" font-size="10.00">L: (nil)</text>
<polygon fill="none" stroke="#d0d5dd" points="412,-130 412,-151 507,-151 507,-130 412,-130"/>
<text text-anchor="start" x="417" y="-138" font-family="monospace" font-size="10.00">R: (nil)</text>
</g>
<!-- n2&#45;&gt;n5 -->
<g id="edge5" class="edge">
<title>n2&#45;&gt;n5</title>
<path fill="none" stroke="#98a2b3" stroke-width="1.9" d="M448.31,-259.8C445.78,-247.81 442.99,-234.59 440.37,-222.16"/>
<polygon fill="#98a2b3" stroke="#98a2b3" stroke-width="1.9" points="438.68,-214.13 443.85,-221.21 439.94,-217.95 440.77,-221.86 440.33,-221.96 439.89,-222.05 439.06,-218.13 436.8,-222.7 438.68,-214.13 438.68,-214.13"/>
<text text-anchor="middle" x="449.5" y="-234.8" font-family="monospace" font-size="9.00">да</text>
</g>
<!-- n6 -->
<g id="node7" class="node">
<title>n6</title>
<path fill="#f9fafb" stroke="transparent" stroke-width="2" d="M739,-214C739,-214 537,-214 537,-214 531,-214 525,-208 525,-202 525,-202 525,-142 525,-142 525,-136 531,-130 537,-130 537,-130 739,-130 739,-130 745,-130 751,-136 751,-142 751,-142 751,-202 751,-202 751,-208 745,-214 739,-214"/>
<polygon fill="#ffffff" stroke="transparent" points="525,-193 525,-214 751,-214 751,-193 525,-193"/>
<polygon fill="none" stroke="#d0d5dd" points="525,-193 525,-214 751,-214 751,-193 525,-193"/>
<text text-anchor="start" x="625.5" y="-202" font-family="monospace" font-weight="bold" font-size="10.00" fill="#111827">node</text>
<polygon fill="none" stroke="#d0d5dd" points="525,-172 525,-193 638,-193 638,-172 525,-172"/>
<text text-anchor="start" x="530" y="-180" font-family="monospace" font-size="10.00">addr</text>
<polygon fill="none" stroke="#d0d5dd" points="638,-172 638,-193 751,-193 751,-172 638,-172"/>
<text text-anchor="start" x="643" y="-180" font-family="monospace" font-size="10.00">0x503001f09f90</text>
<polygon fill="none" stroke="#d0d5dd" points="525,-151 525,-172 638,-172 638,-151 525,-151"/>
<text text-anchor="start" x="530" y="-159" font-family="monospace" font-size="10.00">data</text>
<polygon fill="none" stroke="#d0d5dd" points="638,-151 638,-172 751,-172 751,-151 638,-151"/>
<text text-anchor="start" x="643" y="-159" font-family="monospace" font-size="10.00">&quot;Задает домашки?&quot;</text>
<polygon fill="none" stroke="#d0d5dd" points="525,-130 525,-151 638,-151 638,-130 525,-130"/>
<text text-anchor="start" x="530" y="-138" font-family="monospace" font-size="10.00">L: 0x503001f09ff0</text>
<polygon fill="none" stroke="#d0d5dd" points="638,-130 638,-151 751,-151 751,-130 638,-130"/>
<text text-anchor="start" x="643" y="-138" font-family="monospace" font-size="10.00">R: 0x503001f0a020</text>
</g>
<!-- n2&#45;&gt;n6 -->
<g id="edge6" class="edge">
<title>n2&#45;&gt;n6</title>
<path fill="none" stroke="#98a2b3" stroke-width="1.9" d="M515.27,-259.8C533.67,-246.78 554.13,-232.31 572.98,-218.98"/>
<polygon fill="#98a2b3" stroke="#98a2b3" stroke-width="1.9" points="579.84,-214.13 575.39,-221.69 576.84,-216.8 573.57,-219.11 573.31,-218.75 573.05,-218.38 576.32,-216.07 571.23,-215.81 579.84,-214.13 579.84,-214.13"/>
<text text-anchor="middle" x="560" y="-234.8" font-family="monospace" font-size="9.00">нет</text>
</g>
<!-- n7 -->
<g id="node8" class="node">
<title>n7</title>
<path fill="#f9fafb" stroke="transparent" stroke-width="2" d="M617,-84C617,-84 487,-84 487,-84 481,-84 475,-78 475,-72 475,-72 475,-12 475,-12 475,-6 481,0 487,0 487,0 617,0 617,0 623,0 629,-6 629,-12 629,-12 629,-72 629,-72 629,-78 623,-84 617,-84"/>
<polygon fill="#ffffff" stroke="transparent" points="475,-63 475,-84 629,-84 629,-63 475,-63"/>
<polygon fill="none" stroke="#d0d5dd" points="475,-63 475,-84 629,-84 629,-63 475,-63"/>
<text text-anchor="start" x="539.5" y="-72" font-family="monospace" font-weight="bold" font-size="10.00" fill="#111827">node</text>
<polygon fill="none" stroke="#d0d5dd" points="475,-42 475,-63 534,-63 534,-42 475,-42"/>
<text text-anchor="start" x="480" y="-50" font-family="monospace" font-size="10.00">addr</text>
<polygon fill="none" stroke="#d0d5dd" points="534,-42 534,-63 629,-63 629,-42 534,-42"/>
<text text-anchor="start" x="539" y="-50" font-family="monospace" font-size="10.00">0x503001f09ff0</text>
<polygon fill="none" stroke="#d0d5dd" points="475,-21 475,-42 534,-42 534,-21 475,-21"/>
<text text-anchor="start" x="480" y="-29" font-family="monospace" font-size="10.00">data</text>
<polygon fill="none" stroke="#d0d5dd" points="534,-21 534,-42 629,-42 629,-21 534,-21"/>
<text text-anchor="start" x="539" y="-29" font-family="monospace" font-size="10.00">&quot;Кириков&quot;</text>
<polygon fill="none" stroke="#d0d5dd" points="475,0 475,-21 534,-21 534,0 475,0"/>
<text text-anchor="start" x="480" y="-8" font-family="monospace" font-size="10.00">L: (nil)</text>
<polygon fill="none" stroke="#d0d5dd" points="534,0 534,-21 629,-21 629,0 534,0"/>
<text text-anchor="start" x="539" y="-8" font-family="monospace" font-size="10.00">R: (nil)</text>
</g>
<!-- n6&#45;&gt;n7 -->
<g id="edge7" class="edge">
<title>n6&#45;&gt;n7</title>
<path fill="none" stroke="#98a2b3" stroke-width="1.9" d="M610.32,-129.8C602.03,-117.46 592.87,-103.83 584.31,-91.1"/>
<polygon fill="#98a2b3" stroke="#98a2b3" stroke-width="1.9" points="579.63,-84.13 587.08,-88.76 582.24,-87.2 584.47,-90.52 584.09,-90.77 583.72,-91.02 581.49,-87.7 581.11,-92.78 579.63,-84.13 579.63,-84.13"/>
<text text-anchor="middle" x="602.5" y="-104.8" font-family="monospace" font-size="9.00">да</text>
</g>
<!-- n8 -->
<g id="node9" class="node">
<title>n8</title>
<path fill="#f9fafb" stroke="transparent" stroke-width="2" d="M789,-84C789,-84 659,-84 659,-84 653,-84 647,-78 647,-72 647,-72 647,-12 647,-12 647,-6 653,0 659,0 659,0 789,0 789,0 795,0 801,-6 801,-12 801,-12 801,-72 801,-72 801,-78 795,-84 789,-84"/>
<polygon fill="#ffffff" stroke="transparent" points="647,-63 647,-84 801,-84 801,-63 647,-63"/>
<polygon fill="none" stroke="#d0d5dd" points="647,-63 647,-84 801,-84 801,-63 647,-63"/>
<text text-anchor="start" x="711.5" y="-72" font-family="monospace" font-weight="bold" font-size="10.00" fill="#111827">node</text>
<polygon fill="none" stroke="#d0d5dd" points="647,-42 647,-63 706,-63 706,-42 647,-42"/>
<text text-anchor="start" x="652" y="-50" font-family="monospace" font-size="10.00">addr</text>
<polygon fill="none" stroke="#d0d5dd" points="706,-42 706,-63 801,-63 801,-42 706,-42"/>
<text text-anchor="start" x="711" y="-50" font-family="monospace" font-size="10.00">0x503001f0a020</text>
<polygon fill="none" stroke="#d0d5dd" points="647,-21 647,-42 706,-42 706,-21 647,-21"/>
<text text-anchor="start" x="652" y="-29" font-family="monospace" font-size="10.00">data</text>
<polygon fill="none" stroke="#d0d5dd" points="706,-21 706,-42 801,-42 801,-21 706,-21"/>
<text text-anchor="start" x="711" y="-29" font-family="monospace" font-size="10.00">&quot;Паша&quot;</text>
<polygon fill="none" stroke="#d0d5dd" points="647,0 647,-21 706,-21 706,0 647,0"/>
<text text-anchor="start" x="652" y="-8" font-family="monospace" font-size="10.00">L: (nil)</text>
<polygon fill="none" stroke="#d0d5dd" points="706,0 706,-21 801,-21 801,0 706,0"/>
<text text-anchor="start" x="711" y="-8" font-family="monospace" font-size="10.00">R: (nil)</text>
</g>
<!-- n6&#45;&gt;n8 -->
<g id="edge8" class="edge">
<title>n6&#45;&gt;n8</title>
<path fill="none" stroke="#98a2b3" stroke-width="1.9" d="M665.68,-129.8C673.97,-117.46 683.13,-103.83 691.69,-91.1"/>
<polygon fill="#98a2b3" stroke="#98a2b3" stroke-width="1.9" points="696.37,-84.13 694.89,-92.78 694.51,-87.7 692.28,-91.02 691.91,-90.77 691.53,-90.52 693.76,-87.2 688.92,-88.76 696.37,-84.13 696.37,-84.13"/>
<text text-anchor="middle" x="691" y="-104.8" font-family="monospace" font-size="9.00">нет</text>
</g>
</g>
</svg>
