<?xml version="1.0" encoding="UTF-8" standalone="no"?>
<!DOCTYPE svg PUBLIC "-//W3C//DTD SVG 1.1//EN"
 "http://www.w3.org/Graphics/SVG/1.1/DTD/svg11.dtd">
<!-- Generated by graphviz version 2.42.4 (0)
 -->
<!-- Title: G Pages: 1 -->
<svg width="501pt" height="452pt"
 viewBox="0.00 0.00 501.00 452.00" xmlns="http://www.w3.org/2000/svg" xmlns:xlink="http://www.w3.org/1999/xlink">
<g id="graph0" class="graph" transform="scale(1 1) rotate(0) translate(4 448)">
<title>G</title>
<polygon fill="white" stroke="transparent" points="-4,4 -4,-448 497,-448 497,4 -4,4"/>
<!-- n0 -->
<g id="node1" class="node">
<title>n0</title>
<path fill="#e6f4ea" stroke="transparent" stroke-width="2" d="M413,-444C413,-444 211,-444 211,-444 205,-444 199,-438 199,-432 199,-432 199,-372 199,-372 199,-366 205,-360 211,-360 211,-360 413,-360 413,-360 419,-360 425,-366 425,-372 425,-372 425,-432 425,-432 425,-438 419,-444 413,-444"/>
<polygon fill="#ffffff" stroke="transparent" points="199,-423 199,-444 425,-444 425,-423 199,-423"/>
<polygon fill="none" stroke="#d0d5dd" points="199,-423 199,-444 425,-444 425,-423 199,-423"/>
<text text-anchor="start" x="299.5" y="-432" font-family="monospace" font-weight="bold" font-size="10.00" fill="#111827">node</text>
<polygon fill="none" stroke="#d0d5dd" points="199,-402 199,-423 312,-423 312,-402 199,-402"/>
<text text-anchor="start" x="204" y="-410" font-family="monospace" font-size="10.00">addr</text>
<polygon fill="none" stroke="#d0d5dd" points="312,-402 312,-423 425,-423 425,-402 312,-402"/>
<text text-anchor="start" x="317" y="-410" font-family="monospace" font-size="10.00">0x503000000040</text>
<polygon fill="none" stroke="#d0d5dd" points="199,-381 199,-402 312,-402 312,-381 199,-381"/>
<text text-anchor="start" x="204" y="-389" font-family="monospace" font-size="10.00">data</text>
<polygon fill="none" stroke="#d0d5dd" points="312,-381 312,-402 425,-402 425,-381 312,-381"/>
<text text-anchor="start" x="317" y="-389" font-family="monospace" font-size="10.00">&quot;Is animal?&quot;</text>
<polygon fill="none" stroke="#d0d5dd" points="199,-360 199,-381 312,-381 312,-360 199,-360"/>
<text text-anchor="start" x="204" y="-368" font-family="monospace" font-size="10.00">L: 0x503000000070</text>
<polygon fill="none" stroke="#d0d5dd" points="312,-360 312,-381 425,-381 425,-360 312,-360"/>
<text text-anchor="start" x="317" y="-368" font-family="monospace" font-size="10.00">R: 0x5030000000a0</text>
</g>
<!-- n1 -->
<g id="node2" class="node">
<title>n1</title>
<path fill="#f9fafb" stroke="transparent" stroke-width="2" d="M309,-324C309,-324 107,-324 107,-324 101,-324 95,-318 95,-312 95,-312 95,-252 95,-252 95,-246 101,-240 107,-240 107,-240 309,-240 309,-240 315,-240 321,-246 321,-252 321,-252 321,-312 321,-312 321,-318 315,-324 309,-324"/>
<polygon fill="#ffffff" stroke="transparent" points="95,-303 95,-324 321,-324 321,-303 95,-303"/>
<polygon fill="none" stroke="#d0d5dd" points="95,-303 95,-324 321,-324 321,-303 95,-303"/>
<text text-anchor="start" x="195.5" y="-312" font-family="monospace" font-weight="bold" font-size="10.00" fill="#111827">node</text>
<polygon fill="none" stroke="#d0d5dd" points="95,-282 95,-303 208,-303 208,-282 95,-282"/>
<text text-anchor="start" x="100" y="-290" font-family="monospace" font-size="10.00">addr</text>
<polygon fill="none" stroke="#d0d5dd" points="208,-282 208,-303 321,-303 321,-282 208,-282"/>
<text text-anchor="start" x="213" y="-290" font-family="monospace" font-size="10.00">0x503000000070</text>
<polygon fill="none" stroke="#d0d5dd" points="95,-261 95,-282 208,-282 208,-261 95,-261"/>
<text text-anchor="start" x="100" y="-269" font-family="monospace" font-size="10.00">data</text>
<polygon fill="none" stroke="#d0d5dd" points="208,-261 208,-282 321,-282 321,-261 208,-261"/>
<text text-anchor="start" x="213" y="-269" font-family="monospace" font-size="10.00">&quot;Poltoraska&quot;</text>
<polygon fill="none" stroke="#d0d5dd" points="95,-240 95,-261 208,-261 208,-240 95,-240"/>
<text text-anchor="start" x="100" y="-248" font-family="monospace" font-size="10.00">L: 0x5030000000d0</text>
<polygon fill="none" stroke="#d0d5dd" points="208,-240 208,-261 321,-261 321,-240 208,-240"/>
<text text-anchor="start" x="213" y="-248" font-family="monospace" font-size="10.00">R: 0x503000000100</text>
</g>
<!-- n0&#45;&gt;n1 -->
<g id="edge1" class="edge">
<title>n0&#45;&gt;n1</title>
<path fill="none" stroke="#98a2b3" stroke-width="1.9" d="M275.63,-359.73C267.19,-350.15 258.14,-339.89 249.5,-330.08"/>
<polygon fill="#98a2b3" stroke="#98a2b3" stroke-width="1.9" points="244.18,-324.05 252.17,-327.67 247.16,-326.75 249.81,-329.75 249.47,-330.05 249.13,-330.35 246.49,-327.35 246.77,-332.43 244.18,-324.05 244.18,-324.05"/>
</g>
<!-- n2 -->
<g id="node3" class="node">
<title>n2</title>
<path fill="#f9fafb" stroke="transparent" stroke-width="2" d="M481,-324C481,-324 351,-324 351,-324 345,-324 339,-318 339,-312 339,-312 339,-252 339,-252 339,-246 345,-240 351,-240 351,-240 481,-240 481,-240 487,-240 493,-246 493,-252 493,-252 493,-312 493,-312 493,-318 487,-324 481,-324"/>
<polygon fill="#ffffff" stroke="transparent" points="339,-303 339,-324 493,-324 493,-303 339,-303"/>
<polygon fill="none" stroke="#d0d5dd" points="339,-303 339,-324 493,-324 493,-303 339,-303"/>
<text text-anchor="start" x="403.5" y="-312" font-family="monospace" font-weight="bold" font-size="10.00" fill="#111827">node</text>
<polygon fill="none" stroke="#d0d5dd" points="339,-282 339,-303 398,-303 398,-282 339,-282"/>
<text text-anchor="start" x="344" y="-290" font-family="monospace" font-size="10.00">addr</text>
<polygon fill="none" stroke="#d0d5dd" points="398,-282 398,-303 493,-303 493,-282 398,-282"/>
<text text-anchor="start" x="403" y="-290" font-family="monospace" font-size="10.00">0x5030000000a0</text>
<polygon fill="none" stroke="#d0d5dd" points="339,-261 339,-282 398,-282 398,-261 339,-261"/>
<text text-anchor="start" x="344" y="-269" font-family="monospace" font-size="10.00">data</text>
<polygon fill="none" stroke="#d0d5dd" points="398,-261 398,-282 493,-282 493,-261 398,-261"/>
<text text-anchor="start" x="403" y="-269" font-family="monospace" font-size="10.00">&quot;Preps matan?&quot;</text>
<polygon fill="none" stroke="#d0d5dd" points="339,-240 339,-261 398,-261 398,-240 339,-240"/>
<text text-anchor="start" x="344" y="-248" font-family="monospace" font-size="10.00">L: (nil)</text>
<polygon fill="none" stroke="#d0d5dd" points="398,-240 398,-261 493,-261 493,-240 398,-240"/>
<text text-anchor="start" x="403" y="-248" font-family="monospace" font-size="10.00">R: (nil)</text>
</g>
<!-- n0&#45;&gt;n2 -->
<g id="edge2" class="edge">
<title>n0&#45;&gt;n2</title>
<path fill="none" stroke="#98a2b3" stroke-width="1.9" d="M348.37,-359.73C356.81,-350.15 365.86,-339.89 374.5,-330.08"/>
<polygon fill="#98a2b3" stroke="#98a2b3" stroke-width="1.9" points="379.82,-324.05 377.23,-332.43 377.51,-327.35 374.87,-330.35 374.53,-330.05 374.19,-329.75 376.84,-326.75 371.83,-327.67 379.82,-324.05 379.82,-324.05"/>
</g>
<!-- n3 -->
<g id="node4" class="node">
<title>n3</title>
<path fill="#f9fafb" stroke="transparent" stroke-width="2" d="M196,-204C196,-204 12,-204 12,-204 6,-204 0,-198 0,-192 0,-192 0,-132 0,-132 0,-126 6,-120 12,-120 12,-120 196,-120 196,-120 202,-120 208,-126 208,-132 208,-132 208,-192 208,-192 208,-198 202,-204 196,-204"/>
<polygon fill="#ffffff" stroke="transparent" points="0,-183 0,-204 208,-204 208,-183 0,-183"/>
<polygon fill="none" stroke="#d0d5dd" points="0,-183 0,-204 208,-204 208,-183 0,-183"/>
<text text-anchor="start" x="91.5" y="-192" font-family="monospace" font-weight="bold" font-size="10.00" fill="#111827">node</text>
<polygon fill="none" stroke="#d0d5dd" points="0,-162 0,-183 113,-183 113,-162 0,-162"/>
<text text-anchor="start" x="5" y="-170" font-family="monospace" font-size="10.00">addr</text>
<polygon fill="none" stroke="#d0d5dd" points="113,-162 113,-183 208,-183 208,-162 113,-162"/>
<text text-anchor="start" x="118" y="-170" font-family="monospace" font-size="10.00">0x5030000000d0</text>
<polygon fill="none" stroke="#d0d5dd" points="0,-141 0,-162 113,-162 113,-141 0,-141"/>
<text text-anchor="start" x="5" y="-149" font-family="monospace" font-size="10.00">data</text>
<polygon fill="none" stroke="#d0d5dd" points="113,-141 113,-162 208,-162 208,-141 113,-141"/>
<text text-anchor="start" x="118" y="-149" font-family="monospace" font-size="10.00">&quot;PetroVich&quot;</text>
<polygon fill="none" stroke="#d0d5dd" points="0,-120 0,-141 113,-141 113,-120 0,-120"/>
<text text-anchor="start" x="5" y="-128" font-family="monospace" font-size="10.00">L: 0x503000000130</text>
<polygon fill="none" stroke="#d0d5dd" points="113,-120 113,-141 208,-141 208,-120 113,-120"/>
<text text-anchor="start" x="118" y="-128" font-family="monospace" font-size="10.00">R: (nil)</text>
</g>
<!-- n1&#45;&gt;n3 -->
<g id="edge3" class="edge">
<title>n1&#45;&gt;n3</title>
<path fill="none" stroke="#98a2b3" stroke-width="1.9" d="M171.63,-239.73C163.19,-230.15 154.14,-219.89 145.5,-210.08"/>
<polygon fill="#98a2b3" stroke="#98a2b3" stroke-width="1.9" points="140.18,-204.05 148.17,-207.67 143.16,-206.75 145.81,-209.75 145.47,-210.05 145.13,-210.35 142.49,-207.35 142.77,-212.43 140.18,-204.05 140.18,-204.05"/>
</g>
<!-- n4 -->
<g id="node5" class="node">
<title>n4</title>
<path fill="#f9fafb" stroke="transparent" stroke-width="2" d="M386,-204C386,-204 238,-204 238,-204 232,-204 226,-198 226,-192 226,-192 226,-132 226,-132 226,-126 232,-120 238,-120 238,-120 386,-120 386,-120 392,-120 398,-126 398,-132 398,-132 398,-192 398,-192 398,-198 392,-204 386,-204"/>
<polygon fill="#ffffff" stroke="transparent" points="226,-183 226,-204 398,-204 398,-183 226,-183"/>
<polygon fill="none" stroke="#d0d5dd" points="226,-183 226,-204 398,-204 398,-183 226,-183"/>
<text text-anchor="start" x="299.5" y="-192" font-family="monospace" font-weight="bold" font-size="10.00" fill="#111827">node</text>
<polygon fill="none" stroke="#d0d5dd" points="226,-162 226,-183 285,-183 285,-162 226,-162"/>
<text text-anchor="start" x="231" y="-170" font-family="monospace" font-size="10.00">addr</text>
<polygon fill="none" stroke="#d0d5dd" points="285,-162 285,-183 398,-183 398,-162 285,-162"/>
<text text-anchor="start" x="290" y="-170" font-family="monospace" font-size="10.00">0x503000000100</text>
<polygon fill="none" stroke="#d0d5dd" points="226,-141 226,-162 285,-162 285,-141 226,-141"/>
<text text-anchor="start" x="231" y="-149" font-family="monospace" font-size="10.00">data</text>
<polygon fill="none" stroke="#d0d5dd" points="285,-141 285,-162 398,-162 398,-141 285,-141"/>
<text text-anchor="start" x="290" y="-149" font-family="monospace" font-size="10.00">&quot;Gives homework?&quot;</text>
<polygon fill="none" stroke="#d0d5dd" points="226,-120 226,-141 285,-141 285,-120 226,-120"/>
<text text-anchor="start" x="231" y="-128" font-family="monospace" font-size="10.00">L: (nil)</text>
<polygon fill="none" stroke="#d0d5dd" points="285,-120 285,-141 398,-141 398,-120 285,-120"/>
<text text-anchor="start" x="290" y="-128" font-family="monospace" font-size="10.00">R: (nil)</text>
</g>
<!-- n1&#45;&gt;n4 -->
<g id="edge4" class="edge">
<title>n1&#45;&gt;n4</title>
<path fill="none" stroke="#98a2b3" stroke-width="1.9" d="M244.37,-239.73C252.81,-230.15 261.86,-219.89 270.5,-210.08"/>
<polygon fill="#98a2b3" stroke="#98a2b3" stroke-width="1.9" points="275.82,-204.05 273.23,-212.43 273.51,-207.35 270.87,-210.35 270.53,-210.05 270.19,-209.75 272.84,-206.75 267.83,-207.67 275.82,-204.05 275.82,-204.05"/>
</g>
<!-- n5 -->
<g id="node6" class="node">
<title>n5</title>
<path fill="#f9fafb" stroke="transparent" stroke-width="2" d="M169,-84C169,-84 39,-84 39,-84 33,-84 27,-78 27,-72 27,-72 27,-12 27,-12 27,-6 33,0 39,0 39,0 169,0 169,0 175,0 181,-6 181,-12 181,-12 181,-72 181,-72 181,-78 175,-84 169,-84"/>
<polygon fill="#ffffff" stroke="transparent" points="27,-63 27,-84 181,-84 181,-63 27,-63"/>
<polygon fill="none" stroke="#d0d5dd" points="27,-63 27,-84 181,-84 181,-63 27,-63"/>
<text text-anchor="start" x="91.5" y="-72" font-family="monospace" font-weight="bold" font-size="10.00" fill="#111827">node</text>
<polygon fill="none" stroke="#d0d5dd" points="27,-42 27,-63 86,-63 86,-42 27,-42"/>
<text text-anchor="start" x="32" y="-50" font-family="monospace" font-size="10.00">addr</text>
<polygon fill="none" stroke="#d0d5dd" points="86,-42 86,-63 181,-63 181,-42 86,-42"/>
<text text-anchor="start" x="91" y="-50" font-family="monospace" font-size="10.00">0x503000000130</text>
<polygon fill="none" stroke="#d0d5dd" points="27,-21 27,-42 86,-42 86,-21 27,-21"/>
<text text-anchor="start" x="32" y="-29" font-family="monospace" font-size="10.00">data</text>
<polygon fill="none" stroke="#d0d5dd" points="86,-21 86,-42 181,-42 181,-21 86,-21"/>
<text text-anchor="start" x="91" y="-29" font-family="monospace" font-size="10.00">&quot;Kirikov&quot;</text>
<polygon fill="none" stroke="#d0d5dd" points="27,0 27,-21 86,-21 86,0 27,0"/>
<text text-anchor="start" x="32" y="-8" font-family="monospace" font-size="10.00">L: (nil)</text>
<polygon fill="none" stroke="#d0d5dd" points="86,0 86,-21 181,-21 181,0 86,0"/>
<text text-anchor="start" x="91" y="-8" font-family="monospace" font-size="10.00">R: (nil)</text>
</g>
<!-- n3&#45;&gt;n5 -->
<g id="edge5" class="edge">
<title>n3&#45;&gt;n5</title>
<path fill="none" stroke="#98a2b3" stroke-width="1.9" d="M104,-119.73C104,-110.88 104,-101.43 104,-92.31"/>
<polygon fill="#98a2b3" stroke="#98a2b3" stroke-width="1.9" points="104,-84.05 107.6,-92.05 104.45,-88.05 104.45,-92.05 104,-92.05 103.55,-92.05 103.55,-88.05 100.4,-92.05 104,-84.05 104,-84.05"/>
</g>
</g>
</svg>
