<?xml version="1.0" encoding="UTF-8" standalone="no"?>
<!DOCTYPE svg PUBLIC "-//W3C//DTD SVG 1.1//EN"
 "http://www.w3.org/Graphics/SVG/1.1/DTD/svg11.dtd">
<!-- Generated by graphviz version 2.42.4 (0)
 -->
<!-- Title: G Pages: 1 -->
<svg width="400pt" height="352pt"
 viewBox="0.00 0.00 400.00 352.00" xmlns="http://www.w3.org/2000/svg" xmlns:xlink="http://www.w3.org/1999/xlink">
<g id="graph0" class="graph" transform="scale(1 1) rotate(0) translate(4 348)">
<title>G</title>
<polygon fill="white" stroke="transparent" points="-4,4 -4,-348 396,-348 396,4 -4,4"/>
<!-- n0 -->
<g id="node1" class="node">
<title>n0</title>
<path fill="#e6f4ea" stroke="transparent" stroke-width="2" d="M237,-344C237,-344 35,-344 35,-344 29,-344 23,-338 23,-332 23,-332 23,-272 23,-272 23,-266 29,-260 35,-260 35,-260 237,-260 237,-260 243,-260 249,-266 249,-272 249,-272 249,-332 249,-332 249,-338 243,-344 237,-344"/>
<polygon fill="#ffffff" stroke="transparent" points="23,-323 23,-344 249,-344 249,-323 23,-323"/>
<polygon fill="none" stroke="#d0d5dd" points="23,-323 23,-344 249,-344 249,-323 23,-323"/>
<text text-anchor="start" x="123.5" y="-332" font-family="monospace" font-weight="bold" font-size="10.00" fill="#111827">node</text>
<polygon fill="none" stroke="#d0d5dd" points="23,-302 23,-323 136,-323 136,-302 23,-302"/>
<text text-anchor="start" x="28" y="-310" font-family="monospace" font-size="10.00">addr</text>
<polygon fill="none" stroke="#d0d5dd" points="136,-302 136,-323 249,-323 249,-302 136,-302"/>
<text text-anchor="start" x="141" y="-310" font-family="monospace" font-size="10.00">0x503000000040</text>
<polygon fill="none" stroke="#d0d5dd" points="23,-281 23,-302 136,-302 136,-281 23,-281"/>
<text text-anchor="start" x="28" y="-289" font-family="monospace" font-size="10.00">data</text>
<polygon fill="none" stroke="#d0d5dd" points="136,-281 136,-302 249,-302 249,-281 136,-281"/>
<text text-anchor="start" x="141" y="-289" font-family="monospace" font-size="10.00">&quot;Животное?&quot;</text>
<polygon fill="none" stroke="#d0d5dd" points="23,-260 23,-281 136,-281 136,-260 23,-260"/>
<text text-anchor="start" x="28" y="-268" font-family="monospace" font-size="10.00">L: 0x5030000000a0</text>
<polygon fill="none" stroke="#d0d5dd" points="136,-260 136,-281 249,-281 249,-260 136,-260"/>
<text text-anchor="start" x="141" y="-268" font-family="monospace" font-size="10.00">R: 0x503000000100</text>
</g>
<!-- n1 -->
<g id="node2" class="node">
<title>n1</title>
<path fill="#f9fafb" stroke="transparent" stroke-width="2" d="M142,-214C142,-214 12,-214 12,-214 6,-214 0,-208 0,-202 0,-202 0,-142 0,-142 0,-136 6,-130 12,-130 12,-130 142,-130 142,-130 148,-130 154,-136 154,-142 154,-142 154,-202 154,-202 154,-208 148,-214 142,-214"/>
<polygon fill="#ffffff" stroke="transparent" points="0,-193 0,-214 154,-214 154,-193 0,-193"/>
<polygon fill="none" stroke="#d0d5dd" points="0,-193 0,-214 154,-214 154,-193 0,-193"/>
<text text-anchor="start" x="64.5" y="-202" font-family="monospace" font-weight="bold" font-size="10.00" fill="#111827">node</text>
<polygon fill="none" stroke="#d0d5dd" points="0,-172 0,-193 59,-193 59,-172 0,-172"/>
<text text-anchor="start" x="5" y="-180" font-family="monospace" font-size="10.00">addr</text>
<polygon fill="none" stroke="#d0d5dd" points="59,-172 59,-193 154,-193 154,-172 59,-172"/>
<text text-anchor="start" x="64" y="-180" font-family="monospace" font-size="10.00">0x5030000000a0</text>
<polygon fill="none" stroke="#d0d5dd" points="0,-151 0,-172 59,-172 59,-151 0,-151"/>
<text text-anchor="start" x="5" y="-159" font-family="monospace" font-size="10.00">data</text>
<polygon fill="none" stroke="#d0d5dd" points="59,-151 59,-172 154,-172 154,-151 59,-151"/>
<text text-anchor="start" x="64" y="-159" font-family="monospace" font-size="10.00">&quot;Полторашка&quot;</text>
<polygon fill="none" stroke="#d0d5dd" points="0,-130 0,-151 59,-151 59,-130 0,-130"/>
<text text-anchor="start" x="5" y="-138" font-family="monospace" font-size="10.00">L: (nil)</text>
<polygon fill="none" stroke="#d0d5dd" points="59,-130 59,-151 154,-151 154,-130 59,-130"/>
<text text-anchor="start" x="64" y="-138" font-family="monospace" font-size="10.00">R: (nil)</text>
</g>
<!-- n0&#45;&gt;n1 -->
<g id="edge1" class="edge">
<title>n0&#45;&gt;n1</title>
<path fill="none" stroke="#98a2b3" stroke-width="1.9" d="M117.01,-259.8C111.38,-247.58 105.16,-234.08 99.33,-221.45"/>
<polygon fill="#98a2b3" stroke="#98a2b3" stroke-width="1.9" points="95.96,-214.13 102.58,-219.89 98.04,-217.57 99.71,-221.2 99.31,-221.39 98.9,-221.58 97.22,-217.95 96.04,-222.9 95.96,-214.13 95.96,-214.13"/>
<text text-anchor="middle" x="113.5" y="-234.8" font-family="monospace" font-size="9.00">да</text>
</g>
<!-- n2 -->
<g id="node3" class="node">
<title>n2</title>
<path fill="#f9fafb" stroke="transparent" stroke-width="2" d="M380,-214C380,-214 184,-214 184,-214 178,-214 172,-208 172,-202 172,-202 172,-142 172,-142 172,-136 178,-130 184,-130 184,-130 380,-130 380,-130 386,-130 392,-136 392,-142 392,-142 392,-202 392,-202 392,-208 386,-214 380,-214"/>
<polygon fill="#ffffff" stroke="transparent" points="172,-193 172,-214 392,-214 392,-193 172,-193"/>
<polygon fill="none" stroke="#d0d5dd" points="172,-193 172,-214 392,-214 392,-193 172,-193"/>
<text text-anchor="start" x="269.5" y="-202" font-family="monospace" font-weight="bold" font-size="10.00" fill="#111827">node</text>
<polygon fill="none" stroke="#d0d5dd" points="172,-172 172,-193 285,-193 285,-172 172,-172"/>
<text text-anchor="start" x="177" y="-180" font-family="monospace" font-size="10.00">addr</text>
<polygon fill="none" stroke="#d0d5dd" points="285,-172 285,-193 392,-193 392,-172 285,-172"/>
<text text-anchor="start" x="290" y="-180" font-family="monospace" font-size="10.00">0x503000000100</text>
<polygon fill="none" stroke="#d0d5dd" points="172,-151 172,-172 285,-172 285,-151 172,-151"/>
<text text-anchor="start" x="177" y="-159" font-family="monospace" font-size="10.00">data</text>
<polygon fill="none" stroke="#d0d5dd" points="285,-151 285,-172 392,-172 392,-151 285,-151"/>
<text text-anchor="start" x="290" y="-159" font-family="monospace" font-size="10.00">&quot;Препает матан?&quot;</text>
<polygon fill="none" stroke="#d0d5dd" points="172,-130 172,-151 285,-151 285,-130 172,-130"/>
<text text-anchor="start" x="177" y="-138" font-family="monospace" font-size="10.00">L: 0x503000000160</text>
<polygon fill="none" stroke="#d0d5dd" points="285,-130 285,-151 392,-151 392,-130 285,-130"/>
<text text-anchor="start" x="290" y="-138" font-family="monospace" font-size="10.00">R: (nil)</text>
</g>
<!-- n0&#45;&gt;n2 -->
<g id="edge2" class="edge">
<title>n0&#45;&gt;n2</title>
<path fill="none" stroke="#98a2b3" stroke-width="1.9" d="M183,-259.8C197.59,-247.01 213.77,-232.82 228.75,-219.68"/>
<polygon fill="#98a2b3" stroke="#98a2b3" stroke-width="1.9" points="235.09,-214.13 231.45,-222.11 232.38,-217.1 229.37,-219.74 229.07,-219.4 228.78,-219.06 231.78,-216.43 226.7,-216.69 235.09,-214.13 235.09,-214.13"/>
<text text-anchor="middle" x="221" y="-234.8" font-family="monospace" font-size="9.00">нет</text>
</g>
<!-- n3 -->
<g id="node4" class="node">
<title>n3</title>
<path fill="#f9fafb" stroke="transparent" stroke-width="2" d="M347,-84C347,-84 217,-84 217,-84 211,-84 205,-78 205,-72 205,-72 205,-12 205,-12 205,-6 211,0 217,0 217,0 347,0 347,0 353,0 359,-6 359,-12 359,-12 359,-72 359,-72 359,-78 353,-84 347,-84"/>
<polygon fill="#ffffff" stroke="transparent" points="205,-63 205,-84 359,-84 359,-63 205,-63"/>
<polygon fill="none" stroke="#d0d5dd" points="205,-63 205,-84 359,-84 359,-63 205,-63"/>
<text text-anchor="start" x="269.5" y="-72" font-family="monospace" font-weight="bold" font-size="10.00" fill="#111827">node</text>
<polygon fill="none" stroke="#d0d5dd" points="205,-42 205,-63 264,-63 264,-42 205,-42"/>
<text text-anchor="start" x="210" y="-50" font-family="monospace" font-size="10.00">addr</text>
<polygon fill="none" stroke="#d0d5dd" points="264,-42 264,-63 359,-63 359,-42 264,-42"/>
<text text-anchor="start" x="269" y="-50" font-family="monospace" font-size="10.00">0x503000000160</text>
<polygon fill="none" stroke="#d0d5dd" points="205,-21 205,-42 264,-42 264,-21 205,-21"/>
<text text-anchor="start" x="210" y="-29" font-family="monospace" font-size="10.00">data</text>
<polygon fill="none" stroke="#d0d5dd" points="264,-21 264,-42 359,-42 359,-21 264,-21"/>
<text text-anchor="start" x="269" y="-29" font-family="monospace" font-size="10.00">&quot;ПетроВич&quot;</text>
<polygon fill="none" stroke="#d0d5dd" points="205,0 205,-21 264,-21 264,0 205,0"/>
<text text-anchor="start" x="210" y="-8" font-family="monospace" font-size="10.00">L: (nil)</text>
<polygon fill="none" stroke="#d0d5dd" points="264,0 264,-21 359,-21 359,0 264,0"/>
<text text-anchor="start" x="269" y="-8" font-family="monospace" font-size="10.00">R: (nil)</text>
</g>
<!-- n2&#45;&gt;n3 -->
<g id="edge3" class="edge">
<title>n2&#45;&gt;n3</title>
<path fill="none" stroke="#98a2b3" stroke-width="1.9" d="M282,-129.8C282,-117.81 282,-104.59 282,-92.16"/>
<polygon fill="#98a2b3" stroke="#98a2b3" stroke-width="1.9" points="282,-84.13 285.6,-92.13 282.45,-88.13 282.45,-92.13 282,-92.13 281.55,-92.13 281.55,-88.13 278.4,-92.13 282,-84.13 282,-84.13"/>
<text text-anchor="middle" x="287.5" y="-104.8" font-family="monospace" font-size="9.00">да</text>
</g>
</g>
</svg>
