<?xml version="1.0" encoding="UTF-8" standalone="no"?>
<!DOCTYPE svg PUBLIC "-//W3C//DTD SVG 1.1//EN"
 "http://www.w3.org/Graphics/SVG/1.1/DTD/svg11.dtd">
<!-- Generated by graphviz version 2.42.4 (0)
 -->
<!-- Title: G Pages: 1 -->
<svg width="944pt" height="482pt"
 viewBox="0.00 0.00 944.00 482.00" xmlns="http://www.w3.org/2000/svg" xmlns:xlink="http://www.w3.org/1999/xlink">
<g id="graph0" class="graph" transform="scale(1 1) rotate(0) translate(4 478)">
<title>G</title>
<polygon fill="white" stroke="transparent" points="-4,4 -4,-478 940,-478 940,4 -4,4"/>
<!-- n0 -->
<g id="node1" class="node">
<title>n0</title>
<path fill="#e6f4ea" stroke="transparent" stroke-width="2" d="M571,-474C571,-474 369,-474 369,-474 363,-474 357,-468 357,-462 357,-462 357,-402 357,-402 357,-396 363,-390 369,-390 369,-390 571,-390 571,-390 577,-390 583,-396 583,-402 583,-402 583,-462 583,-462 583,-468 577,-474 571,-474"/>
<polygon fill="#ffffff" stroke="transparent" points="357,-453 357,-474 583,-474 583,-453 357,-453"/>
<polygon fill="none" stroke="#d0d5dd" points="357,-453 357,-474 583,-474 583,-453 357,-453"/>
<text text-anchor="start" x="457.5" y="-462" font-family="monospace" font-weight="bold" font-size="10.00" fill="#111827">node</text>
<polygon fill="none" stroke="#d0d5dd" points="357,-432 357,-453 470,-453 470,-432 357,-432"/>
<text text-anchor="start" x="362" y="-440" font-family="monospace" font-size="10.00">addr</text>
<polygon fill="none" stroke="#d0d5dd" points="470,-432 470,-453 583,-453 583,-432 470,-432"/>
<text text-anchor="start" x="475" y="-440" font-family="monospace" font-size="10.00">0x503000000040</text>
<polygon fill="none" stroke="#d0d5dd" points="357,-411 357,-432 470,-432 470,-411 357,-411"/>
<text text-anchor="start" x="362" y="-419" font-family="monospace" font-size="10.00">data</text>
<polygon fill="none" stroke="#d0d5dd" points="470,-411 470,-432 583,-432 583,-411 470,-411"/>
<text text-anchor="start" x="475" y="-419" font-family="monospace" font-size="10.00">&quot;Животное?&quot;</text>
<polygon fill="none" stroke="#d0d5dd" points="357,-390 357,-411 470,-411 470,-390 357,-390"/>
<text text-anchor="start" x="362" y="-398" font-family="monospace" font-size="10.00">L: 0x5030000000a0</text>
<polygon fill="none" stroke="#d0d5dd" points="470,-390 470,-411 583,-411 583,-390 470,-390"/>
<text text-anchor="start" x="475" y="-398" font-family="monospace" font-size="10.00">R: 0x503000000220</text>
</g>
<!-- n1 -->
<g id="node2" class="node">
<title>n1</title>
<path fill="#f9fafb" stroke="transparent" stroke-width="2" d="M449,-344C449,-344 247,-344 247,-344 241,-344 235,-338 235,-332 235,-332 235,-272 235,-272 235,-266 241,-260 247,-260 247,-260 449,-260 449,-260 455,-260 461,-266 461,-272 461,-272 461,-332 461,-332 461,-338 455,-344 449,-344"/>
<polygon fill="#ffffff" stroke="transparent" points="235,-323 235,-344 461,-344 461,-323 235,-323"/>
<polygon fill="none" stroke="#d0d5dd" points="235,-323 235,-344 461,-344 461,-323 235,-323"/>
<text text-anchor="start" x="335.5" y="-332" font-family="monospace" font-weight="bold" font-size="10.00" fill="#111827">node</text>
<polygon fill="none" stroke="#d0d5dd" points="235,-302 235,-323 348,-323 348,-302 235,-302"/>
<text text-anchor="start" x="240" y="-310" font-family="monospace" font-size="10.00">addr</text>
<polygon fill="none" stroke="#d0d5dd" points="348,-302 348,-323 461,-323 461,-302 348,-302"/>
<text text-anchor="start" x="353" y="-310" font-family="monospace" font-size="10.00">0x5030000000a0</text>
<polygon fill="none" stroke="#d0d5dd" points="235,-281 235,-302 348,-302 348,-281 235,-281"/>
<text text-anchor="start" x="240" y="-289" font-family="monospace" font-size="10.00">data</text>
<polygon fill="none" stroke="#d0d5dd" points="348,-281 348,-302 461,-302 461,-281 348,-281"/>
<text text-anchor="start" x="353" y="-289" font-family="monospace" font-size="10.00">&quot;Кошачья морда?&quot;</text>
<polygon fill="none" stroke="#d0d5dd" points="235,-260 235,-281 348,-281 348,-260 235,-260"/>
<text text-anchor="start" x="240" y="-268" font-family="monospace" font-size="10.00">L: 0x503000000100</text>
<polygon fill="none" stroke="#d0d5dd" points="348,-260 348,-281 461,-281 461,-260 348,-260"/>
<text text-anchor="start" x="353" y="-268" font-family="monospace" font-size="10.00">R: 0x5030000001f0</text>
</g>
<!-- n0&#45;&gt;n1 -->
<g id="edge1" class="edge">
<title>n0&#45;&gt;n1</title>
<path fill="none" stroke="#98a2b3" stroke-width="1.9" d="M430.73,-389.8C418.65,-377.12 405.26,-363.07 392.83,-350.04"/>
<polygon fill="#98a2b3" stroke="#98a2b3" stroke-width="1.9" points="387.2,-344.13 395.32,-347.43 390.29,-346.71 393.04,-349.61 392.72,-349.92 392.39,-350.23 389.63,-347.33 390.11,-352.4 387.2,-344.13 387.2,-344.13"/>
<text text-anchor="middle" x="418.5" y="-364.8" font-family="monospace" font-size="9.00">да</text>
</g>
<!-- n2 -->
<g id="node3" class="node">
<title>n2</title>
<path fill="#f9fafb" stroke="transparent" stroke-width="2" d="M693,-344C693,-344 491,-344 491,-344 485,-344 479,-338 479,-332 479,-332 479,-272 479,-272 479,-266 485,-260 491,-260 491,-260 693,-260 693,-260 699,-260 705,-266 705,-272 705,-272 705,-332 705,-332 705,-338 699,-344 693,-344"/>
<polygon fill="#ffffff" stroke="transparent" points="479,-323 479,-344 705,-344 705,-323 479,-323"/>
<polygon fill="none" stroke="#d0d5dd" points="479,-323 479,-344 705,-344 705,-323 479,-323"/>
<text text-anchor="start" x="579.5" y="-332" font-family="monospace" font-weight="bold" font-size="10.00" fill="#111827">node</text>
<polygon fill="none" stroke="#d0d5dd" points="479,-302 479,-323 592,-323 592,-302 479,-302"/>
<text text-anchor="start" x="484" y="-310" font-family="monospace" font-size="10.00">addr</text>
<polygon fill="none" stroke="#d0d5dd" points="592,-302 592,-323 705,-323 705,-302 592,-302"/>
<text text-anchor="start" x="597" y="-310" font-family="monospace" font-size="10.00">0x503000000220</text>
<polygon fill="none" stroke="#d0d5dd" points="479,-281 479,-302 592,-302 592,-281 479,-281"/>
<text text-anchor="start" x="484" y="-289" font-family="monospace" font-size="10.00">data</text>
<polygon fill="none" stroke="#d0d5dd" points="592,-281 592,-302 705,-302 705,-281 592,-281"/>
<text text-anchor="start" x="597" y="-289" font-family="monospace" font-size="10.00">&quot;Препает матан?&quot;</text>
<polygon fill="none" stroke="#d0d5dd" points="479,-260 479,-281 592,-281 592,-260 479,-260"/>
<text text-anchor="start" x="484" y="-268" font-family="monospace" font-size="10.00">L: 0x503000000280</text>
<polygon fill="none" stroke="#d0d5dd" points="592,-260 592,-281 705,-281 705,-260 592,-260"/>
<text text-anchor="start" x="597" y="-268" font-family="monospace" font-size="10.00">R: 0x5030000002e0</text>
</g>
<!-- n0&#45;&gt;n2 -->
<g id="edge2" class="edge">
<title>n0&#45;&gt;n2</title>
<path fill="none" stroke="#98a2b3" stroke-width="1.9" d="M509.27,-389.8C521.35,-377.12 534.74,-363.07 547.17,-350.04"/>
<polygon fill="#98a2b3" stroke="#98a2b3" stroke-width="1.9" points="552.8,-344.13 549.89,-352.4 550.37,-347.33 547.61,-350.23 547.28,-349.92 546.96,-349.61 549.71,-346.71 544.68,-347.43 552.8,-344.13 552.8,-344.13"/>
<text text-anchor="middle" x="543" y="-364.8" font-family="monospace" font-size="9.00">нет</text>
</g>
<!-- n3 -->
<g id="node4" class="node">
<title>n3</title>
<path fill="#f9fafb" stroke="transparent" stroke-width="2" d="M264,-214C264,-214 62,-214 62,-214 56,-214 50,-208 50,-202 50,-202 50,-142 50,-142 50,-136 56,-130 62,-130 62,-130 264,-130 264,-130 270,-130 276,-136 276,-142 276,-142 276,-202 276,-202 276,-208 270,-214 264,-214"/>
<polygon fill="#ffffff" stroke="transparent" points="50,-193 50,-214 276,-214 276,-193 50,-193"/>
<polygon fill="none" stroke="#d0d5dd" points="50,-193 50,-214 276,-214 276,-193 50,-193"/>
<text text-anchor="start" x="150.5" y="-202" font-family="monospace" font-weight="bold" font-size="10.00" fill="#111827">node</text>
<polygon fill="none" stroke="#d0d5dd" points="50,-172 50,-193 163,-193 163,-172 50,-172"/>
<text text-anchor="start" x="55" y="-180" font-family="monospace" font-size="10.00">addr</text>
<polygon fill="none" stroke="#d0d5dd" points="163,-172 163,-193 276,-193 276,-172 163,-172"/>
<text text-anchor="start" x="168" y="-180" font-family="monospace" font-size="10.00">0x503000000100</text>
<polygon fill="none" stroke="#d0d5dd" points="50,-151 50,-172 163,-172 163,-151 50,-151"/>
<text text-anchor="start" x="55" y="-159" font-family="monospace" font-size="10.00">data</text>
<polygon fill="none" stroke="#d0d5dd" points="163,-151 163,-172 276,-172 276,-151 163,-151"/>
<text text-anchor="start" x="168" y="-159" font-family="monospace" font-size="10.00">&quot;Острые уши?&quot;</text>
<polygon fill="none" stroke="#d0d5dd" points="50,-130 50,-151 163,-151 163,-130 50,-130"/>
<text text-anchor="start" x="55" y="-138" font-family="monospace" font-size="10.00">L: 0x503000000160</text>
<polygon fill="none" stroke="#d0d5dd" points="163,-130 163,-151 276,-151 276,-130 163,-130"/>
<text text-anchor="start" x="168" y="-138" font-family="monospace" font-size="10.00">R: 0x503000000190</text>
</g>
<!-- n1&#45;&gt;n3 -->
<g id="edge3" class="edge">
<title>n1&#45;&gt;n3</title>
<path fill="none" stroke="#98a2b3" stroke-width="1.9" d="M288.7,-259.97C269.7,-246.82 248.54,-232.19 229.08,-218.72"/>
<polygon fill="#98a2b3" stroke="#98a2b3" stroke-width="1.9" points="222.28,-214.02 230.91,-215.61 225.83,-215.92 229.11,-218.2 228.86,-218.57 228.6,-218.94 225.31,-216.66 226.81,-221.53 222.28,-214.02 222.28,-214.02"/>
<text text-anchor="middle" x="267.5" y="-234.8" font-family="monospace" font-size="9.00">да</text>
</g>
<!-- n4 -->
<g id="node5" class="node">
<title>n4</title>
<path fill="#f9fafb" stroke="transparent" stroke-width="2" d="M436,-214C436,-214 306,-214 306,-214 300,-214 294,-208 294,-202 294,-202 294,-142 294,-142 294,-136 300,-130 306,-130 306,-130 436,-130 436,-130 442,-130 448,-136 448,-142 448,-142 448,-202 448,-202 448,-208 442,-214 436,-214"/>
<polygon fill="#ffffff" stroke="transparent" points="294,-193 294,-214 448,-214 448,-193 294,-193"/>
<polygon fill="none" stroke="#d0d5dd" points="294,-193 294,-214 448,-214 448,-193 294,-193"/>
<text text-anchor="start" x="358.5" y="-202" font-family="monospace" font-weight="bold" font-size="10.00" fill="#111827">node</text>
<polygon fill="none" stroke="#d0d5dd" points="294,-172 294,-193 353,-193 353,-172 294,-172"/>
<text text-anchor="start" x="299" y="-180" font-family="monospace" font-size="10.00">addr</text>
<polygon fill="none" stroke="#d0d5dd" points="353,-172 353,-193 448,-193 448,-172 353,-172"/>
<text text-anchor="start" x="358" y="-180" font-family="monospace" font-size="10.00">0x5030000001f0</text>
<polygon fill="none" stroke="#d0d5dd" points="294,-151 294,-172 353,-172 353,-151 294,-151"/>
<text text-anchor="start" x="299" y="-159" font-family="monospace" font-size="10.00">data</text>
<polygon fill="none" stroke="#d0d5dd" points="353,-151 353,-172 448,-172 448,-151 353,-151"/>
<text text-anchor="start" x="358" y="-159" font-family="monospace" font-size="10.00">&quot;Песик&quot;</text>
<polygon fill="none" stroke="#d0d5dd" points="294,-130 294,-151 353,-151 353,-130 294,-130"/>
<text text-anchor="start" x="299" y="-138" font-family="monospace" font-size="10.00">L: (nil)</text>
<polygon fill="none" stroke="#d0d5dd" points="353,-130 353,-151 448,-151 448,-130 353,-130"/>
<text text-anchor="start" x="358" y="-138" font-family="monospace" font-size="10.00">R: (nil)</text>
</g>
<!-- n1&#45;&gt;n4 -->
<g id="edge4" class="edge">
<title>n1&#45;&gt;n4</title>
<path fill="none" stroke="#98a2b3" stroke-width="1.9" d="M355.4,-259.8C357.56,-247.81 359.93,-234.59 362.17,-222.16"/>
<polygon fill="#98a2b3" stroke="#98a2b3" stroke-width="1.9" points="363.61,-214.13 365.74,-222.64 363.35,-218.14 362.64,-222.08 362.2,-222 361.75,-221.92 362.46,-217.98 358.65,-221.36 363.61,-214.13 363.61,-214.13"/>
<text text-anchor="middle" x="369" y="-234.8" font-family="monospace" font-size="9.00">нет</text>
</g>
<!-- n5 -->
<g id="node6" class="node">
<title>n5</title>
<path fill="#f9fafb" stroke="transparent" stroke-width="2" d="M630,-214C630,-214 500,-214 500,-214 494,-214 488,-208 488,-202 488,-202 488,-142 488,-142 488,-136 494,-130 500,-130 500,-130 630,-130 630,-130 636,-130 642,-136 642,-142 642,-142 642,-202 642,-202 642,-208 636,-214 630,-214"/>
<polygon fill="#ffffff" stroke="transparent" points="488,-193 488,-214 642,-214 642,-193 488,-193"/>
<polygon fill="none" stroke="#d0d5dd" points="488,-193 488,-214 642,-214 642,-193 488,-193"/>
<text text-anchor="start" x="552.5" y="-202" font-family="monospace" font-weight="bold" font-size="10.00" fill="#111827">node</text>
<polygon fill="none" stroke="#d0d5dd" points="488,-172 488,-193 547,-193 547,-172 488,-172"/>
<text text-anchor="start" x="493" y="-180" font-family="monospace" font-size="10.00">addr</text>
<polygon fill="none" stroke="#d0d5dd" points="547,-172 547,-193 642,-193 642,-172 547,-172"/>
<text text-anchor="start" x="552" y="-180" font-family="monospace" font-size="10.00">0x503000000280</text>
<polygon fill="none" stroke="#d0d5dd" points="488,-151 488,-172 547,-172 547,-151 488,-151"/>
<text text-anchor="start" x="493" y="-159" font-family="monospace" font-size="10.00">data</text>
<polygon fill="none" stroke="#d0d5dd" points="547,-151 547,-172 642,-172 642,-151 547,-151"/>
<text text-anchor="start" x="552" y="-159" font-family="monospace" font-size="10.00">&quot;ПетроВич&quot;</text>
<polygon fill="none" stroke="#d0d5dd" points="488,-130 488,-151 547,-151 547,-130 488,-130"/>
<text text-anchor="start" x="493" y="-138" font-family="monospace" font-size="10.00">L: (nil)</text>
<polygon fill="none" stroke="#d0d5dd" points="547,-130 547,-151 642,-151 642,-130 547,-130"/>
<text text-anchor="start" x="552" y="-138" font-family="monospace" font-size="10.00">R: (nil)</text>
</g>
<!-- n2&#45;&gt;n5 -->
<g id="edge5" class="edge">
<title>n2&#45;&gt;n5</title>
<path fill="none" stroke="#98a2b3" stroke-width="1.9" d="M583.31,-259.8C580.78,-247.81 577.99,-234.59 575.37,-222.16"/>
<polygon fill="#98a2b3" stroke="#98a2b3" stroke-width="1.9" points="573.68,-214.13 578.85,-221.21 574.94,-217.95 575.77,-221.86 575.33,-221.96 574.89,-222.05 574.06,-218.13 571.8,-222.7 573.68,-214.13 573.68,-214.13"/>
<text text-anchor="middle" x="585.5" y="-234.8" font-family="monospace" font-size="9.00">да</text>
</g>
<!-- n6 -->
<g id="node7" class="node">
<title>n6</title>
<path fill="#f9fafb" stroke="transparent" stroke-width="2" d="M874,-214C874,-214 672,-214 672,-214 666,-214 660,-208 660,-202 660,-202 660,-142 660,-142 660,-136 666,-130 672,-130 672,-130 874,-130 874,-130 880,-130 886,-136 886,-142 886,-142 886,-202 886,-202 886,-208 880,-214 874,-214"/>
<polygon fill="#ffffff" stroke="transparent" points="660,-193 660,-214 886,-214 886,-193 660,-193"/>
<polygon fill="none" stroke="#d0d5dd" points="660,-193 660,-214 886,-214 886,-193 660,-193"/>
<text text-anchor="start" x="760.5" y="-202" font-family="monospace" font-weight="bold" font-size="10.00" fill="#111827">node</text>
<polygon fill="none" stroke="#d0d5dd" points="660,-172 660,-193 773,-193 773,-172 660,-172"/>
<text text-anchor="start" x="665" y="-180" font-family="monospace" font-size="10.00">addr</text>
<polygon fill="none" stroke="#d0d5dd" points="773,-172 773,-193 886,-193 886,-172 773,-172"/>
<text text-anchor="start" x="778" y="-180" font-family="monospace" font-size="10.00">0x5030000002e0</text>
<polygon fill="none" stroke="#d0d5dd" points="660,-151 660,-172 773,-172 773,-151 660,-151"/>
<text text-anchor="start" x="665" y="-159" font-family="monospace" font-size="10.00">data</text>
<polygon fill="none" stroke="#d0d5dd" points="773,-151 773,-172 886,-172 886,-151 773,-151"/>
<text text-anchor="start" x="778" y="-159" font-family="monospace" font-size="10.00">&quot;Задает домашки?&quot;</text>
<polygon fill="none" stroke="#d0d5dd" points="660,-130 660,-151 773,-151 773,-130 660,-130"/>
<text text-anchor="start" x="665" y="-138" font-family="monospace" font-size="10.00">L: 0x503000000340</text>
<polygon fill="none" stroke="#d0d5dd" points="773,-130 773,-151 886,-151 886,-130 773,-130"/>
<text text-anchor="start" x="778" y="-138" font-family="monospace" font-size="10.00">R: 0x503000000370</text>
</g>
<!-- n2&#45;&gt;n6 -->
<g id="edge6" class="edge">
<title>n2&#45;&gt;n6</title>
<path fill="none" stroke="#98a2b3" stroke-width="1.9" d="M650.27,-259.8C668.67,-246.78 689.13,-232.31 707.98,-218.98"/>
<polygon fill="#98a2b3" stroke="#98a2b3" stroke-width="1.9" points="714.84,-214.13 710.39,-221.69 711.84,-216.8 708.57,-219.11 708.31,-218.75 708.05,-218.38 711.32,-216.07 706.23,-215.81 714.84,-214.13 714.84,-214.13"/>
<text text-anchor="middle" x="696" y="-234.8" font-family="monospace" font-size="9.00">нет</text>
</g>
<!-- n7 -->
<g id="node8" class="node">
<title>n7</title>
<path fill="#f9fafb" stroke="transparent" stroke-width="2" d="M142,-84C142,-84 12,-84 12,-84 6,-84 0,-78 0,-72 0,-72 0,-12 0,-12 0,-6 6,0 12,0 12,0 142,0 142,0 148,0 154,-6 154,-12 154,-12 154,-72 154,-72 154,-78 148,-84 142,-84"/>
<polygon fill="#ffffff" stroke="transparent" points="0,-63 0,-84 154,-84 154,-63 0,-63"/>
<polygon fill="none" stroke="#d0d5dd" points="0,-63 0,-84 154,-84 154,-63 0,-63"/>
<text text-anchor="start" x="64.5" y="-72" font-family="monospace" font-weight="bold" font-size="10.00" fill="#111827">node</text>
<polygon fill="none" stroke="#d0d5dd" points="0,-42 0,-63 59,-63 59,-42 0,-42"/>
<text text-anchor="start" x="5" y="-50" font-family="monospace" font-size="10.00">addr</text>
<polygon fill="none" stroke="#d0d5dd" points="59,-42 59,-63 154,-63 154,-42 59,-42"/>
<text text-anchor="start" x="64" y="-50" font-family="monospace" font-size="10.00">0x503000000160</text>
<polygon fill="none" stroke="#d0d5dd" points="0,-21 0,-42 59,-42 59,-21 0,-21"/>
<text text-anchor="start" x="5" y="-29" font-family="monospace" font-size="10.00">data</text>
<polygon fill="none" stroke="#d0d5dd" points="59,-21 59,-42 154,-42 154,-21 59,-21"/>
<text text-anchor="start" x="64" y="-29" font-family="monospace" font-size="10.00">&quot;рысь&quot;</text>
<polygon fill="none" stroke="#d0d5dd" points="0,0 0,-21 59,-21 59,0 0,0"/>
<text text-anchor="start" x="5" y="-8" font-family="monospace" font-size="10.00">L: (nil)</text>
<polygon fill="none" stroke="#d0d5dd" points="59,0 59,-21 154,-21 154,0 59,0"/>
<text text-anchor="start" x="64" y="-8" font-family="monospace" font-size="10.00">R: (nil)</text>
</g>
<!-- n3&#45;&gt;n7 -->
<g id="edge7" class="edge">
<title>n3&#45;&gt;n7</title>
<path fill="none" stroke="#98a2b3" stroke-width="1.9" d="M135.32,-129.8C127.03,-117.46 117.87,-103.83 109.31,-91.1"/>
<polygon fill="#98a2b3" stroke="#98a2b3" stroke-width="1.9" points="104.63,-84.13 112.08,-88.76 107.24,-87.2 109.47,-90.52 109.09,-90.77 108.72,-91.02 106.49,-87.7 106.11,-92.78 104.63,-84.13 104.63,-84.13"/>
<text text-anchor="middle" x="128.5" y="-104.8" font-family="monospace" font-size="9.00">да</text>
</g>
<!-- n8 -->
<g id="node9" class="node">
<title>n8</title>
<path fill="#f9fafb" stroke="transparent" stroke-width="2" d="M314,-84C314,-84 184,-84 184,-84 178,-84 172,-78 172,-72 172,-72 172,-12 172,-12 172,-6 178,0 184,0 184,0 314,0 314,0 320,0 326,-6 326,-12 326,-12 326,-72 326,-72 326,-78 320,-84 314,-84"/>
<polygon fill="#ffffff" stroke="transparent" points="172,-63 172,-84 326,-84 326,-63 172,-63"/>
<polygon fill="none" stroke="#d0d5dd" points="172,-63 172,-84 326,-84 326,-63 172,-63"/>
<text text-anchor="start" x="236.5" y="-72" font-family="monospace" font-weight="bold" font-size="10.00" fill="#111827">node</text>
<polygon fill="none" stroke="#d0d5dd" points="172,-42 172,-63 231,-63 231,-42 172,-42"/>
<text text-anchor="start" x="177" y="-50" font-family="monospace" font-size="10.00">addr</text>
<polygon fill="none" stroke="#d0d5dd" points="231,-42 231,-63 326,-63 326,-42 231,-42"/>
<text text-anchor="start" x="236" y="-50" font-family="monospace" font-size="10.00">0x503000000190</text>
<polygon fill="none" stroke="#d0d5dd" points="172,-21 172,-42 231,-42 231,-21 172,-21"/>
<text text-anchor="start" x="177" y="-29" font-family="monospace" font-size="10.00">data</text>
<polygon fill="none" stroke="#d0d5dd" points="231,-21 231,-42 326,-42 326,-21 231,-21"/>
<text text-anchor="start" x="236" y="-29" font-family="monospace" font-size="10.00">&quot;Полторашка&quot;</text>
<polygon fill="none" stroke="#d0d5dd" points="172,0 172,-21 231,-21 231,0 172,0"/>
<text text-anchor="start" x="177" y="-8" font-family="monospace" font-size="10.00">L: (nil)</text>
<polygon fill="none" stroke="#d0d5dd" points="231,0 231,-21 326,-21 326,0 231,0"/>
<text text-anchor="start" x="236" y="-8" font-family="monospace" font-size="10.00">R: (nil)</text>
</g>
<!-- n3&#45;&gt;n8 -->
<g id="edge8" class="edge">
<title>n3&#45;&gt;n8</title>
<path fill="none" stroke="#98a2b3" stroke-width="1.9" d="M190.68,-129.8C198.97,-117.46 208.13,-103.83 216.69,-91.1"/>
<polygon fill="#98a2b3" stroke="#98a2b3" stroke-width="1.9" points="221.37,-84.13 219.89,-92.78 219.51,-87.7 217.28,-91.02 216.91,-90.77 216.53,-90.52 218.76,-87.2 213.92,-88.76 221.37,-84.13 221.37,-84.13"/>
<text text-anchor="middle" x="217" y="-104.8" font-family="monospace" font-size="9.00">нет</text>
</g>
<!-- n9 -->
<g id="node10" class="node">
<title>n9</title>
<path fill="#f9fafb" stroke="transparent" stroke-width="2" d="M752,-84C752,-84 622,-84 622,-84 616,-84 610,-78 610,-72 610,-72 610,-12 610,-12 610,-6 616,0 622,0 622,0 752,0 752,0 758,0 764,-6 764,-12 764,-12 764,-72 764,-72 764,-78 758,-84 752,-84"/>
<polygon fill="#ffffff" stroke="transparent" points="610,-63 610,-84 764,-84 764,-63 610,-63"/>
<polygon fill="none" stroke="#d0d5dd" points="610,-63 610,-84 764,-84 764,-63 610,-63"/>
<text text-anchor="start" x="674.5" y="-72" font-family="monospace" font-weight="bold" font-size="10.00" fill="#111827">node</text>
<polygon fill="none" stroke="#d0d5dd" points="610,-42 610,-63 669,-63 669,-42 610,-42"/>
<text text-anchor="start" x="615" y="-50" font-family="monospace" font-size="10.00">addr</text>
<polygon fill="none" stroke="#d0d5dd" points="669,-42 669,-63 764,-63 764,-42 669,-42"/>
<text text-anchor="start" x="674" y="-50" font-family="monospace" font-size="10.00">0x503000000340</text>
<polygon fill="none" stroke="#d0d5dd" points="610,-21 610,-42 669,-42 669,-21 610,-21"/>
<text text-anchor="start" x="615" y="-29" font-family="monospace" font-size="10.00">data</text>
<polygon fill="none" stroke="#d0d5dd" points="669,-21 669,-42 764,-42 764,-21 669,-21"/>
<text text-anchor="start" x="674" y="-29" font-family="monospace" font-size="10.00">&quot;Кириков&quot;</text>
<polygon fill="none" stroke="#d0d5dd" points="610,0 610,-21 669,-21 669,0 610,0"/>
<text text-anchor="start" x="615" y="-8" font-family="monospace" font-size="10.00">L: (nil)</text>
<polygon fill="none" stroke="#d0d5dd" points="669,0 669,-21 764,-21 764,0 669,0"/>
<text text-anchor="start" x="674" y="-8" font-family="monospace" font-size="10.00">R: (nil)</text>
</g>
<!-- n6&#45;&gt;n9 -->
<g id="edge9" class="edge">
<title>n6&#45;&gt;n9</title>
<path fill="none" stroke="#98a2b3" stroke-width="1.9" d="M745.32,-129.8C737.03,-117.46 727.87,-103.83 719.31,-91.1"/>
<polygon fill="#98a2b3" stroke="#98a2b3" stroke-width="1.9" points="714.63,-84.13 722.08,-88.76 717.24,-87.2 719.47,-90.52 719.09,-90.77 718.72,-91.02 716.49,-87.7 716.11,-92.78 714.63,-84.13 714.63,-84.13"/>
<text text-anchor="middle" x="738.5" y="-104.8" font-family="monospace" font-size="9.00">да</text>
</g>
<!-- n10 -->
<g id="node11" class="node">
<title>n10</title>
<path fill="#f9fafb" stroke="transparent" stroke-width="2" d="M924,-84C924,-84 794,-84 794,-84 788,-84 782,-78 782,-72 782,-72 782,-12 782,-12 782,-6 788,0 794,0 794,0 924,0 924,0 930,0 936,-6 936,-12 936,-12 936,-72 936,-72 936,-78 930,-84 924,-84"/>
<polygon fill="#ffffff" stroke="transparent" points="782,-63 782,-84 936,-84 936,-63 782,-63"/>
<polygon fill="none" stroke="#d0d5dd" points="782,-63 782,-84 936,-84 936,-63 782,-63"/>
<text text-anchor="start" x="846.5" y="-72" font-family="monospace" font-weight="bold" font-size="10.00" fill="#111827">node</text>
<polygon fill="none" stroke="#d0d5dd" points="782,-42 782,-63 841,-63 841,-42 782,-42"/>
<text text-anchor="start" x="787" y="-50" font-family="monospace" font-size="10.00">addr</text>
<polygon fill="none" stroke="#d0d5dd" points="841,-42 841,-63 936,-63 936,-42 841,-42"/>
<text text-anchor="start" x="846" y="-50" font-family="monospace" font-size="10.00">0x503000000370</text>
<polygon fill="none" stroke="#d0d5dd" points="782,-21 782,-42 841,-42 841,-21 782,-21"/>
<text text-anchor="start" x="787" y="-29" font-family="monospace" font-size="10.00">data</text>
<polygon fill="none" stroke="#d0d5dd" points="841,-21 841,-42 936,-42 936,-21 841,-21"/>
<text text-anchor="start" x="846" y="-29" font-family="monospace" font-size="10.00">&quot;Паша&quot;</text>
<polygon fill="none" stroke="#d0d5dd" points="782,0 782,-21 841,-21 841,0 782,0"/>
<text text-anchor="start" x="787" y="-8" font-family="monospace" font-size="10.00">L: (nil)</text>
<polygon fill="none" stroke="#d0d5dd" points="841,0 841,-21 936,-21 936,0 841,0"/>
<text text-anchor="start" x="846" y="-8" font-family="monospace" font-size="10.00">R: (nil)</text>
</g>
<!-- n6&#45;&gt;n10 -->
<g id="edge10" class="edge">
<title>n6&#45;&gt;n10</title>
<path fill="none" stroke="#98a2b3" stroke-width="1.9" d="M800.68,-129.8C808.97,-117.46 818.13,-103.83 826.69,-91.1"/>
<polygon fill="#98a2b3" stroke="#98a2b3" stroke-width="1.9" points="831.37,-84.13 829.89,-92.78 829.51,-87.7 827.28,-91.02 826.91,-90.77 826.53,-90.52 828.76,-87.2 823.92,-88.76 831.37,-84.13 831.37,-84.13"/>
<text text-anchor="middle" x="826" y="-104.8" font-family="monospace" font-size="9.00">нет</text>
</g>
</g>
</svg>
